<?xml version="1.0" encoding="UTF-8"?>
<!DOCTYPE svg PUBLIC "-//W3C//DTD SVG 1.1//EN" "http://www.w3.org/Graphics/SVG/1.1/DTD/svg11.dtd">
<svg version="1.1" xmlns="http://www.w3.org/2000/svg" xmlns:xlink="http://www.w3.org/1999/xlink" x="0px" y="0px" width="110" height="114.799" viewBox="0, 0, 110, 114.799">
  <g id="Layer 1">
    <path d="M1,1 L1,113.799 L109,113.799 L109,1 z M78.074,110.225 C77.857,110.456 77.712,110.609 77.671,110.653 C78.084,111.058 78.421,111.349 78.684,111.697 C78.719,111.743 78.359,112.252 78.211,112.237 C77.918,112.211 77.442,112.007 77.403,111.806 C77.292,111.234 77.086,110.515 78.074,110.225 z z M31.109,87.991 C33.395,90.635 35.612,93.2 37.9,95.847 C38.441,95.247 38.942,94.691 39.558,94.007 C42.603,97.532 45.609,101.012 48.746,104.644 L9.447,104.644 C12.532,101.038 15.491,97.58 18.564,93.987 C19.816,95.414 21.012,96.777 22.301,98.246 C25.233,94.832 28.138,91.45 31.109,87.991 z z M79.108,86.711 C80.579,86.505 82.049,86.493 83.213,87.994 C83.332,88.894 83.309,90.149 84.775,90.595 C84.903,90.634 84.998,90.893 85.047,91.068 C85.353,92.173 85.548,93.32 85.98,94.371 C86.15,94.785 86.893,95.304 87.274,95.234 C89.359,94.846 91.083,95.74 92.809,96.619 C93.103,96.768 93.314,97.317 93.346,97.7 C93.486,99.331 93.484,100.976 93.658,102.602 C93.764,103.591 93.351,104.029 92.481,104.133 C89.551,104.485 86.618,105.071 83.685,105.085 C77.497,105.113 71.308,104.863 65.121,104.661 C63.939,104.623 62.766,104.281 61.589,104.08 C60.935,103.967 60.669,103.637 60.716,102.925 C60.85,100.932 60.874,98.932 61.021,96.94 C61.051,96.531 61.328,96.023 61.654,95.773 C62.629,95.028 63.684,94.387 64.609,93.515 C63.461,94.155 62.312,94.794 61.08,95.479 C61.144,94.347 61.175,93.254 61.288,92.168 C61.317,91.893 61.551,91.562 61.788,91.4 C63.06,90.536 64.186,89.356 65.951,89.529 C66.298,89.563 66.779,89.334 67.029,89.067 C68.602,87.393 70.728,87.674 72.684,87.46 C74.161,87.298 75.671,87.451 77.156,87.335 C77.819,87.283 78.442,86.803 79.108,86.711 z M21.575,45.729 L26.209,45.729 C25.831,50.338 25.457,54.897 25.077,59.528 L22.499,59.528 L22.499,60.991 L38.565,60.991 L38.565,65.635 C33.954,65.261 29.43,64.894 24.771,64.516 L24.771,61.954 L23.345,61.954 L23.345,77.939 L18.663,77.939 C19.027,73.399 19.392,68.852 19.766,64.182 L22.045,64.182 C22.046,64.114 22.047,64.046 22.048,63.976 L19.574,63.976 C19.132,68.689 18.691,73.403 18.235,78.261 L23.503,78.261 L23.503,74.216 C24.218,75.846 24.785,77.139 25.377,78.487 C25.139,78.515 24.893,78.497 24.694,78.585 C24.519,78.662 24.396,78.859 24.25,79.003 C24.405,79.138 24.549,79.372 24.717,79.39 C25.232,79.448 25.759,79.39 26.272,79.451 C26.433,79.469 26.685,79.721 26.683,79.863 C26.68,80.026 26.47,80.24 26.297,80.33 C26.136,80.413 25.906,80.369 25.706,80.369 C21.347,80.37 16.987,80.38 12.629,80.348 C12.282,80.345 11.939,80.052 11.594,79.893 C11.931,79.737 12.265,79.576 12.606,79.428 C12.673,79.399 12.769,79.439 12.843,79.418 C13.287,79.288 13.728,79.151 14.171,79.016 C13.777,78.79 13.383,78.563 12.919,78.296 C14.88,74.87 15.483,70.959 15.625,67.022 C15.236,66.677 14.862,66.434 14.627,66.094 C14.532,65.956 14.673,65.549 14.828,65.37 C15.017,65.151 15.334,65.042 15.596,64.885 C15.237,64.71 14.878,64.534 14.354,64.277 C14.547,63.818 14.764,63.302 15.02,62.696 L6.341,62.696 L6.341,58.099 C7.904,58.214 9.442,58.316 10.978,58.44 C13.527,58.645 16.072,58.93 18.625,59.046 C19.791,59.099 20.354,59.408 20.13,60.644 C20.075,60.95 20.122,61.275 20.122,61.702 C20.602,61.773 21.012,61.835 21.575,61.92 z M54.817,39.765 L55.195,39.746 C55.287,40.851 55.32,41.965 55.5,43.056 C55.575,43.513 56.009,43.899 56.195,44.352 C56.529,45.161 56.818,45.991 57.057,46.832 C57.072,46.888 56.503,47.11 56.085,47.313 C56.201,49.209 56.273,51.16 56.451,53.101 C56.631,55.043 56.869,56.984 57.17,58.911 C57.466,60.805 57.789,62.705 58.255,64.562 C58.73,66.452 59.146,68.426 60.046,70.12 C60.923,71.769 61.312,73.597 62.267,75.187 C63.267,76.852 64.253,78.524 65.311,80.302 L60.624,80.302 C60.077,75.666 58.235,73.558 54.858,73.646 C51.543,73.732 49.669,75.988 49.424,80.278 L44.679,80.278 C45.292,79.285 45.921,78.384 46.427,77.42 C47.355,75.651 48.812,74.126 48.819,71.916 C48.82,71.465 49.659,71.075 49.856,70.558 C50.467,68.96 51.092,67.344 51.462,65.68 C52.127,62.686 52.723,59.668 53.14,56.631 C53.562,53.557 53.731,50.449 54.016,47.299 C52.996,47.049 52.558,46.78 53.23,45.723 C53.586,45.163 53.448,44.316 54.358,44.049 C54.49,44.01 54.498,43.472 54.527,43.161 C54.632,42.03 54.722,40.898 54.817,39.765 z M87.922,39.129 C88.512,39.882 87.972,40.9 88.827,41.409 C88.893,41.448 88.88,41.741 88.812,41.864 C87.803,43.663 88.126,45.593 88.263,47.497 C88.284,47.796 88.541,48.078 88.69,48.368 C88.899,48.203 89.085,47.978 89.322,47.886 C89.768,47.714 90.242,47.619 90.708,47.49 C91.059,47.823 91.526,48.268 91.962,48.682 C91.76,49.207 91.309,49.871 91.287,50.549 C91.259,51.483 91.064,52.513 92.024,53.303 C92.417,53.627 92.453,54.384 92.652,54.945 C92.777,55.295 92.903,55.645 93.14,56.308 C93.53,55.751 93.755,55.43 94.015,55.059 C94.762,55.372 95.451,55.662 96.105,55.936 C96.553,57.923 94.646,58.607 94.023,59.969 C93.925,60.184 93.688,60.384 93.691,60.589 C93.74,63.366 93.809,66.144 93.9,68.921 C93.941,70.183 93.976,71.385 94.784,72.554 C95.327,73.339 95.282,74.53 95.518,75.621 C96.068,75.572 96.568,75.527 97.124,75.478 L97.124,80.293 L83.801,80.293 C83.801,78.699 83.841,77.09 83.791,75.485 C83.73,73.507 84.861,71.947 85.483,70.202 C86.119,68.42 86.641,66.58 87.011,64.725 C87.215,63.701 86.998,62.593 86.988,61.523 C86.984,61.044 86.97,60.554 87.053,60.086 C87.145,59.561 87.541,59.058 86.667,58.74 C86.505,58.681 86.495,57.709 86.687,57.28 C87.058,56.448 87.197,55.725 86.585,54.966 C86.474,54.828 86.454,54.596 86.439,54.404 C86.359,53.434 86.23,52.461 86.249,51.491 C86.264,50.779 86.469,50.068 86.619,49.363 C86.674,49.104 86.9,48.865 86.905,48.614 C86.941,46.831 86.957,45.047 86.932,43.264 C86.926,42.884 86.644,42.508 86.635,42.128 C86.625,41.753 86.746,41.348 86.907,41.003 C87.197,40.378 87.561,39.788 87.922,39.129 z M19.188,4.684 C20.659,4.88 21.189,5.396 21.488,6.94 C22.176,6.834 22.873,6.727 23.901,6.568 C23.246,7.118 22.894,7.413 22.514,7.732 C23.661,8.22 24.659,8.646 25.656,9.072 C25.631,9.177 25.606,9.282 25.581,9.388 L24.288,9.388 C24.275,9.451 24.262,9.514 24.25,9.578 C24.697,9.829 25.144,10.081 25.591,10.333 C25.563,10.405 25.535,10.479 25.507,10.552 C25.056,10.51 24.605,10.469 24.152,10.428 C24.883,11.097 25.594,11.748 26.304,12.399 C26.26,12.443 26.215,12.488 26.171,12.532 C25.2,12.091 24.229,11.65 22.989,11.086 C23.316,11.9 23.522,12.414 23.843,13.215 C23.172,12.835 22.779,12.612 22.348,12.368 C22.173,12.991 22.001,13.604 21.814,14.269 C21.492,14.294 21.124,14.322 20.757,14.35 C20.742,14.41 20.728,14.469 20.713,14.529 C21.105,14.67 21.497,14.81 22.168,15.049 C21.553,15.15 21.226,15.203 20.855,15.263 C21.527,15.712 22.171,16.14 23.057,16.731 C21.859,16.467 20.994,16.277 19.949,16.047 C20.305,16.59 20.538,16.945 20.784,17.32 C19.831,17.543 19.616,19.33 20.241,21.435 C21.94,20.58 23.554,19.407 25.347,18.969 C27.108,18.54 29.137,18.517 30.803,19.613 C32.41,20.671 33.895,21.913 35.433,23.074 C35.377,23.192 35.321,23.309 35.265,23.426 C34.933,23.405 34.575,23.296 34.276,23.384 C33.794,23.527 33.013,23.727 32.946,24.031 C32.588,25.666 31.367,26.948 31.167,28.566 C32.446,29.359 33.709,30.142 34.972,30.925 C34.948,31.057 34.925,31.19 34.902,31.322 C34.274,31.63 33.646,31.938 33.018,32.246 C33.05,32.286 33.062,32.33 33.051,32.381 C32.962,33.226 32.215,33.277 31.665,33.636 C30.815,34.191 29.943,34.563 28.992,34.905 C28.188,35.194 27.382,35.763 26.592,35.605 C26.309,35.548 26.088,35.176 25.75,34.867 C25.888,34.74 26.061,34.582 26.256,34.403 C26.008,34.34 25.758,34.277 25.509,34.214 C25.506,34.14 25.504,34.067 25.502,33.994 L27.313,33.841 C27.31,33.804 27.307,33.766 27.303,33.729 L22.974,33.729 C23.228,33.998 23.352,34.13 23.602,34.395 L20.87,34.395 C20.972,34.69 21.025,34.844 21.039,34.884 C19.639,35.103 18.259,35.318 16.879,35.534 C16.88,35.598 16.881,35.662 16.882,35.726 C17.279,35.775 17.675,35.824 18.071,35.873 C18.075,35.951 18.078,36.029 18.081,36.108 C16.172,36.261 14.263,36.415 12.354,36.568 C12.337,36.466 12.319,36.364 12.302,36.262 C13.097,36.119 13.893,35.976 15.017,35.774 C14.489,35.605 14.285,35.54 13.998,35.448 C14.137,35.373 14.218,35.303 14.309,35.284 C15.771,34.985 17.234,34.692 18.694,34.157 C17.766,34.014 16.838,33.871 15.856,33.72 C16.505,33.683 17.109,33.649 17.713,33.615 C17.73,33.486 17.746,33.357 17.763,33.227 C16.848,33.083 15.933,32.939 15.033,32.797 C15.339,32.645 15.706,32.462 16.073,32.279 C15.942,32.192 15.814,32.099 15.678,32.018 C15.252,31.768 14.823,31.522 14.396,31.275 C14.734,30.861 14.998,30.331 15.426,30.058 C16.39,29.445 17.435,28.959 18.543,28.371 C14.953,25.395 13.318,21.244 11.755,17.041 C11.307,15.837 10.733,14.679 10.192,13.441 L10.192,16.303 C10.111,16.306 10.03,16.31 9.95,16.314 C9.758,15.855 9.567,15.395 9.271,14.686 C9.081,15.38 8.961,15.822 8.774,16.505 C8.468,15.591 8.221,14.855 7.943,14.025 C7.747,14.478 7.578,14.87 7.409,15.261 C7.279,15.228 7.149,15.196 7.018,15.163 C7.288,14.155 7.558,13.148 7.854,12.039 C6.944,12.415 6.031,12.793 4.808,13.299 C5.643,12.059 6.324,11.046 7.155,9.811 L4.964,9.811 C4.94,9.692 4.915,9.573 4.891,9.453 C6.053,9.19 7.215,8.926 8.447,8.647 C8.538,7.285 7.274,7.714 6.618,7.356 C8.001,6.659 8.95,6.937 10.123,8.398 C10.744,7.95 11.369,7.5 12.238,6.873 C11.898,7.691 11.682,8.211 11.501,8.647 C12.8,8.647 14.004,8.848 15.101,8.59 C16.196,8.333 17.183,7.617 18.217,7.102 C18.115,6.905 18.063,6.625 17.901,6.53 C17.552,6.324 17.147,6.213 16.765,6.062 L16.885,5.714 C17.938,5.979 18.991,6.244 20.055,6.512 C20.667,5.492 19.389,5.336 19.188,4.684 z M80.292,31.575 L103.324,31.575 C103.338,31.663 103.351,31.751 103.364,31.839 C102.336,31.913 101.308,31.986 99.899,32.087 C100.303,32.731 100.611,33.225 100.953,33.77 C100.716,33.853 100.33,33.989 99.858,34.156 C99.982,34.426 100.085,34.654 100.306,35.135 C98.477,35.293 96.741,35.442 95.007,35.591 C94.992,35.436 94.979,35.28 94.964,35.125 C95.714,35.088 96.47,34.975 97.213,35.033 C98.045,35.097 98.679,34.955 99.008,33.984 C98.185,33.913 97.433,33.848 96.771,33.792 C97.551,33.255 98.279,32.753 99.008,32.251 C98.953,32.117 98.9,31.984 98.845,31.85 C97.019,32.061 95.192,32.272 93.063,32.517 C93.668,32.911 94.07,33.174 94.472,33.435 C94.405,33.478 94.34,33.521 94.274,33.564 C94.49,33.979 94.708,34.394 94.986,34.927 L89.902,34.927 C89.894,34.811 89.886,34.694 89.878,34.578 C90.939,34.509 91.999,34.442 93.06,34.374 C93.067,34.249 93.073,34.124 93.08,34 C92.544,33.864 92.008,33.728 91.327,33.555 C91.609,33.426 91.808,33.371 91.961,33.255 C92.119,33.134 92.232,32.955 92.365,32.801 C92.184,32.69 92.015,32.542 91.819,32.474 C91.262,32.28 90.698,32 90.127,31.975 C89.427,31.944 88.717,32.137 87.804,32.261 C88.529,32.836 89,33.209 89.582,33.67 C88.956,33.86 88.511,33.995 87.907,34.178 C88.287,34.48 88.568,34.704 88.999,35.047 C86.69,35.436 84.538,35.672 82.624,34.69 C85.673,34.376 85.673,34.376 87.159,33.166 C86.807,33.037 86.493,32.923 86.169,32.804 C86.284,32.638 86.39,32.486 86.6,32.182 C85.886,32.095 85.259,31.907 84.663,31.98 C84.154,32.043 83.682,32.406 83.185,32.64 C83.561,33.132 83.833,33.488 84.244,34.025 L80.379,34.025 C80.924,33.887 81.439,33.756 82.008,33.611 C81.454,32.954 80.961,32.368 80.292,31.575 z M79,29.69 L103.727,29.69 L103.727,30.873 L79.075,30.873 C79.051,30.48 79.029,30.137 79,29.69 z z M68.472,11.724 C68.556,12.462 68.647,13.25 68.752,14.172 C67.143,14.835 65.682,16.233 63.551,16.254 C62.232,16.267 62.083,16.679 62.314,18.251 C63.405,18.155 64.506,18.059 65.706,17.953 C65.225,20.132 63.316,18.763 62.177,19.716 C62.253,20.798 62.344,22.097 62.442,23.5 L64.265,23.5 C64.047,23.106 63.875,22.798 63.594,22.29 L65.375,22.29 C65.51,26.111 65.638,29.763 65.77,33.508 C64.944,33.804 64.721,33.625 64.624,32.449 C64.537,31.386 64.358,30.33 64.205,29.173 L62.822,29.173 C62.598,31.289 63.616,33.247 63.275,35.368 C63.272,35.372 63.211,35.482 63.168,35.476 C61.595,35.247 60.059,34.844 58.425,34.92 C57.881,34.945 57.374,34.351 57.367,33.295 C57.359,31.854 58.066,30.209 56.861,28.862 C56.757,28.746 56.729,28.402 56.82,28.293 C57.864,27.046 57.655,25.799 56.912,24.511 C56.806,24.327 56.774,23.897 56.878,23.825 C57.885,23.124 56.968,22.679 56.45,21.892 L59.229,21.892 C59.027,22.523 58.885,22.972 58.741,23.422 C59.308,23.513 59.875,23.604 60.622,23.725 L60.622,19.513 C58.404,19.613 56.078,19.719 53.655,19.829 L53.655,24.133 L55.047,24.133 C54.875,23.63 54.725,23.194 54.517,22.584 L56.097,22.584 C56.508,26.095 55.537,29.549 56.994,32.899 L54.93,32.899 L54.93,28.82 L53.53,28.82 C53.899,30.07 53.217,31.4 54.165,32.543 C54.264,32.662 54.281,32.947 54.21,33.093 C53.742,34.048 54.144,34.662 55.094,35.156 C53.496,35.645 52.306,35.047 51.337,34.311 C51.648,33.905 51.988,33.461 52.397,32.927 C51.816,32.689 51.422,32.528 51.143,32.413 C52.157,31.424 51.65,30.128 51.942,28.903 L49.426,28.903 C49.7,30.149 50.023,31.26 50.155,32.393 C50.208,32.843 49.968,33.513 49.626,33.776 C49.168,34.129 48.826,33.884 48.416,33.257 C47.655,32.093 48.759,31.111 48.39,30.067 C48.234,29.625 48.067,29.173 48.014,28.713 C47.977,28.383 48.076,28.016 48.195,27.695 C48.499,26.871 48.907,26.09 47.916,25.385 C47.715,25.242 47.617,24.582 47.768,24.382 C48.495,23.414 48.542,23.264 47.76,22.011 L49.817,22.011 C49.658,22.73 49.512,23.387 49.337,24.175 L52.079,24.175 C52.173,22.811 52.271,21.406 52.358,20.159 C51.358,19.877 50.525,19.643 49.693,19.409 C49.721,19.261 49.749,19.114 49.776,18.966 L52.197,18.966 C52.503,17.427 52.321,17.279 50.929,17.233 C50.396,17.215 49.869,16.814 49.352,16.561 C48.665,16.224 47.991,15.862 47.09,15.397 C47.426,15.208 47.757,15.022 48.081,14.84 C47.849,14.513 47.715,14.325 47.574,14.126 C54.777,15.04 61.72,13.957 68.472,11.724 z M80.61,28.102 L81.067,28.067 C87.931,28.078 94.795,28.066 101.659,28.093 C101.993,28.094 102.325,28.404 102.658,28.57 C102.303,28.75 101.947,29.085 101.59,29.087 L93.988,29.112 L80.334,29.112 C80.188,28.671 80.235,28.913 80.224,28.381 z M82.269,26.709 C88.378,26.674 94.486,26.674 100.596,26.708 C100.86,26.709 101.122,27.092 101.386,27.298 C101.317,27.398 101.247,27.499 101.178,27.599 L81.698,27.599 C81.627,27.499 81.557,27.4 81.485,27.3 C81.746,27.094 82.007,26.711 82.269,26.709 z M93.17,15.421 L95.126,15.421 C95.288,19.034 95.448,22.594 95.612,26.246 L92.675,26.246 C92.841,22.616 93.004,19.053 93.17,15.421 z M81.948,15.413 L83.941,15.413 C84.085,19.01 84.229,22.579 84.375,26.232 L81.486,26.232 C81.641,22.617 81.793,19.048 81.948,15.413 z z M87.583,15.401 L89.542,15.401 C89.709,18.993 89.876,22.585 90.047,26.245 L87.12,26.245 C87.274,22.657 87.426,19.094 87.583,15.401 z z M99.243,15.372 L100.107,15.372 L100.777,15.439 C100.932,19.033 101.083,22.566 101.239,26.204 L98.448,26.204 C98.448,25.212 98.422,24.23 98.453,23.25 C98.473,22.744 98.711,16.604 98.721,16.437 C98.737,16.181 98.805,15.93 98.847,15.677 z M90.687,10.163 C91.091,10.02 91.635,10.018 92.039,10.162 C95.272,11.307 98.491,12.49 101.699,13.705 C102.017,13.826 102.225,14.237 102.484,14.513 C102.154,14.643 101.824,14.883 101.493,14.885 C98.095,14.913 94.696,14.903 91.298,14.903 C87.939,14.905 84.579,14.916 81.221,14.887 C80.89,14.885 80.561,14.642 80.232,14.51 C80.493,14.236 80.705,13.829 81.025,13.708 C84.233,12.493 87.453,11.309 90.687,10.163 z" fill="#FFFFFE"/>
    <path d="M65.204,96.299 C66.457,96.152 66.599,95.728 65.735,94.407 C65.523,95.162 65.375,95.691 65.204,96.299 M88.759,102.409 C88.546,102.395 88.333,102.379 88.12,102.364 C88.084,102.937 88.038,103.51 88.038,104.082 C88.038,104.108 88.453,104.133 88.675,104.158 C88.703,103.575 88.731,102.992 88.759,102.409 M68.57,104.208 C68.375,103.451 68.222,102.856 67.998,101.991 C67.108,103.49 67.266,104.105 68.57,104.208 M66.044,102.292 C65.036,103.486 65.174,104.026 66.308,104.054 C66.217,103.447 66.13,102.869 66.044,102.292 M65.471,98.432 C65.471,99.115 65.464,99.695 65.499,100.273 C65.5,100.292 65.913,100.287 66.135,100.295 C66.073,99.713 66.013,99.132 65.946,98.552 C65.945,98.539 65.881,98.534 65.471,98.432 M88.636,98.256 C88.411,98.258 88.187,98.26 87.963,98.263 C87.993,98.864 88.017,99.468 88.077,100.068 C88.079,100.085 88.611,100.075 88.611,100.066 C88.639,99.463 88.636,98.86 88.636,98.256 M86.737,102.471 C86.479,102.444 86.221,102.416 85.963,102.389 C85.928,103.012 85.885,103.635 85.887,104.258 C85.887,104.285 86.301,104.311 86.521,104.337 C86.594,103.715 86.665,103.093 86.737,102.471 M86.65,98.013 C86.448,98.015 86.246,98.018 86.044,98.02 C86.016,98.649 85.956,99.279 85.994,99.903 C85.999,99.987 86.502,100.039 87.028,100.168 C86.874,99.29 86.763,98.652 86.65,98.013 M67.169,100.143 C67.283,100.229 67.396,100.315 67.511,100.401 C67.763,100.237 68.224,100.082 68.23,99.909 C68.253,99.351 68.107,98.787 68.027,98.225 C67.858,98.228 67.688,98.231 67.519,98.234 C67.403,98.869 67.286,99.506 67.169,100.143 M83.24,95.088 C83.772,95.143 84.106,95.176 84.717,95.237 C84.523,94.437 84.372,93.808 84.221,93.179 C84.037,93.188 83.853,93.196 83.67,93.204 C83.534,93.799 83.398,94.394 83.24,95.088 M68.071,93.871 C67.889,93.866 67.705,93.863 67.522,93.86 C67.375,94.505 67.226,95.152 67.078,95.798 C67.182,95.87 67.285,95.944 67.389,96.017 C67.713,95.816 68.274,95.65 68.31,95.406 C68.383,94.916 68.168,94.385 68.071,93.871 M84.653,99.882 C84.466,99.112 84.316,98.495 84.166,97.879 C83.991,97.884 83.816,97.889 83.641,97.894 C83.512,98.522 83.382,99.15 83.231,99.882 z M83.177,104.636 C83.857,104.519 84.196,104.46 84.672,104.377 C84.491,103.623 84.35,103.037 84.211,102.452 C84.044,102.452 83.877,102.453 83.71,102.454 C83.557,103.08 83.403,103.706 83.177,104.636 M70.945,104.378 C70.768,103.619 70.618,102.972 70.468,102.324 C70.289,102.332 70.111,102.341 69.933,102.35 C69.811,102.992 69.689,103.635 69.549,104.378 z M69.446,95.373 C70.044,95.332 70.433,95.306 71.024,95.266 C70.832,94.465 70.68,93.83 70.527,93.195 C70.338,93.205 70.148,93.215 69.959,93.226 C69.807,93.866 69.653,94.508 69.446,95.373 M69.528,100.027 L70.968,100.027 C70.782,99.279 70.625,98.647 70.469,98.014 C70.292,98.026 70.116,98.036 69.939,98.048 C69.81,98.667 69.682,99.287 69.528,100.027 M82.329,99.923 C82.126,99.044 81.969,98.365 81.811,97.687 L81.176,97.716 C81.055,98.422 80.933,99.128 80.798,99.923 z M82.295,104.64 C82.107,103.807 81.958,103.144 81.808,102.482 L81.21,102.482 C81.076,103.169 80.942,103.857 80.79,104.64 z M71.911,100.02 L73.318,100.02 C73.117,99.201 73.654,98.277 72.279,97.695 C72.148,98.523 72.036,99.233 71.911,100.02 M73.394,104.578 C73.24,103.779 73.107,103.085 72.974,102.39 C72.76,102.392 72.546,102.395 72.332,102.397 C72.208,103.092 72.084,103.788 71.943,104.578 z M77.5,95.1 C78.227,95.052 78.598,95.028 79.218,94.987 C78.977,94.236 78.799,93.634 78.573,93.049 C78.553,92.994 78.101,93.005 78.082,93.064 C77.881,93.656 77.728,94.265 77.5,95.1 M73.472,95.075 C73.236,94.271 73.068,93.653 72.857,93.053 C72.841,93.006 72.38,93.021 72.357,93.086 C72.143,93.714 71.979,94.36 71.779,95.075 z M80.342,94.979 L82.066,94.979 C81.816,94.177 81.61,93.515 81.403,92.853 C81.215,92.871 81.027,92.889 80.839,92.906 C80.683,93.551 80.529,94.195 80.342,94.979 M79.569,99.87 C79.337,99.103 79.157,98.462 78.927,97.841 C78.91,97.796 78.369,97.837 78.344,97.919 C78.154,98.554 78.032,99.208 77.855,100.01 C78.522,99.955 78.899,99.925 79.569,99.87 M75.833,102.333 C75.59,102.341 75.348,102.349 75.104,102.357 C74.952,103.081 74.8,103.806 74.634,104.593 L76.316,104.593 C76.138,103.758 75.985,103.046 75.833,102.333 M75.822,92.719 C75.601,92.716 75.381,92.713 75.161,92.709 C74.985,93.452 74.81,94.195 74.619,95.008 L76.302,95.008 C76.126,94.17 75.974,93.445 75.822,92.719 M79.418,104.622 C79.171,103.82 78.992,103.177 78.754,102.556 C78.729,102.492 78.191,102.509 78.169,102.578 C77.964,103.214 77.819,103.869 77.631,104.622 z M76.152,99.965 C76.146,99.055 76.478,98.172 75.122,97.551 C74.967,98.436 74.839,99.164 74.698,99.965 z M83.213,87.994 C83.332,88.895 83.308,90.15 84.774,90.596 C84.903,90.635 84.998,90.894 85.047,91.069 C85.352,92.173 85.548,93.32 85.979,94.371 C86.149,94.785 86.892,95.305 87.273,95.235 C89.359,94.847 91.083,95.74 92.808,96.619 C93.102,96.769 93.313,97.318 93.346,97.7 C93.486,99.331 93.483,100.977 93.658,102.603 C93.764,103.591 93.35,104.029 92.48,104.134 C89.551,104.486 86.618,105.071 83.684,105.085 C77.497,105.113 71.308,104.863 65.121,104.661 C63.938,104.623 62.766,104.281 61.589,104.08 C60.934,103.968 60.669,103.638 60.716,102.926 C60.85,100.933 60.874,98.933 61.02,96.941 C61.051,96.531 61.328,96.024 61.654,95.774 C62.629,95.028 63.683,94.388 64.609,93.516 C63.461,94.155 62.311,94.794 61.08,95.48 C61.143,94.348 61.175,93.254 61.288,92.168 C61.316,91.894 61.551,91.563 61.788,91.401 C63.059,90.536 64.185,89.357 65.951,89.529 C66.298,89.564 66.779,89.334 67.029,89.068 C68.601,87.394 70.727,87.674 72.683,87.46 C74.161,87.298 75.671,87.451 77.156,87.335 C77.819,87.283 78.441,86.804 79.108,86.711 C80.579,86.505 82.049,86.493 83.213,87.994" fill="#141413"/>
    <path d="M21.411,26.483 C21.227,25.212 21.042,23.942 20.858,22.671 C20.707,22.694 20.556,22.716 20.405,22.738 C20.326,24.071 20.838,25.319 21.411,26.483 M16.716,12.784 C16.716,11.556 16.26,11.444 13.747,12.243 C14.728,12.421 15.708,12.6 16.716,12.784 M22.547,25.479 L22.547,22.825 C22.284,22.775 21.966,22.714 21.636,22.652 C21.557,24.885 21.668,25.247 22.547,25.479 M30.673,28.522 C31.037,27.362 31.385,26.253 31.747,25.1 C31.269,24.847 30.874,24.637 30.388,24.379 C30.244,25.028 30.138,25.505 30.021,26.032 L31.148,26.032 C30.361,26.636 29.251,26.859 29.63,28.181 C29.92,28.276 30.25,28.384 30.673,28.522 M28.995,27.538 C28.989,27.413 28.983,27.287 28.978,27.162 C26.737,27.581 24.948,26.715 23.392,25.14 L23.392,27.272 C25.072,27.481 26.645,27.695 28.224,27.854 C28.468,27.878 28.737,27.649 28.995,27.538 M18.302,9.173 C15.792,8.708 14.497,8.912 14.035,9.773 L15.684,9.773 C15.699,9.835 15.714,9.896 15.729,9.958 C15.298,10.182 14.866,10.407 14.463,10.617 C16.319,11.717 17.069,10.041 18.302,9.173 M19.735,25.754 C19.586,24.737 19.387,23.724 19.302,22.702 C19.216,21.672 19.307,20.628 19.2,19.602 C19.123,18.868 18.847,18.155 18.66,17.434 C17.796,19.36 18.377,23.416 19.735,25.754 M29.601,23.548 C27.298,23.256 25.21,22.991 22.744,22.678 C23.121,23.643 23.197,24.626 23.715,25.009 C25.083,26.022 26.746,26.39 28.468,26.239 C28.752,26.214 29.189,25.971 29.251,25.745 C29.445,25.034 29.495,24.282 29.601,23.548 M14.702,17.409 C14.598,17.332 14.494,17.255 14.39,17.178 C14.777,16.516 15.165,15.855 15.557,15.187 C14.171,15.134 13.09,14.776 11.943,13.921 C12.671,19.143 15.031,23.255 18.735,26.82 C18.17,23.681 17.637,20.726 17.066,17.554 C16.819,18.101 16.69,18.386 16.438,18.944 C16.325,18.287 16.268,17.958 16.179,17.438 C15.876,17.832 15.701,18.06 15.432,18.41 C15.394,17.725 15.365,17.198 15.336,16.678 C15.103,16.946 14.903,17.177 14.702,17.409 M16.074,32.279 C15.942,32.192 15.814,32.099 15.678,32.018 C15.252,31.768 14.823,31.522 14.396,31.275 C14.734,30.861 14.998,30.331 15.427,30.058 C16.39,29.445 17.435,28.959 18.543,28.371 C14.953,25.395 13.318,21.244 11.755,17.041 C11.307,15.837 10.734,14.679 10.192,13.441 L10.192,16.303 C10.112,16.306 10.031,16.31 9.95,16.314 C9.758,15.855 9.567,15.395 9.271,14.686 C9.081,15.38 8.961,15.822 8.774,16.505 C8.468,15.591 8.222,14.855 7.944,14.025 C7.747,14.478 7.578,14.87 7.41,15.261 C7.279,15.228 7.149,15.196 7.018,15.163 C7.288,14.155 7.558,13.148 7.854,12.039 C6.945,12.415 6.031,12.793 4.808,13.298 C5.643,12.059 6.325,11.046 7.156,9.811 L4.964,9.811 C4.94,9.692 4.915,9.573 4.891,9.453 C6.053,9.19 7.215,8.926 8.448,8.647 C8.538,7.285 7.274,7.713 6.619,7.356 C8.001,6.659 8.951,6.937 10.123,8.398 C10.744,7.95 11.369,7.5 12.239,6.873 C11.898,7.691 11.682,8.211 11.501,8.647 C12.801,8.647 14.005,8.848 15.101,8.59 C16.196,8.333 17.183,7.617 18.218,7.102 C18.116,6.905 18.063,6.625 17.902,6.53 C17.553,6.324 17.147,6.212 16.765,6.062 L16.885,5.713 C17.938,5.979 18.991,6.244 20.056,6.512 C20.667,5.492 19.39,5.336 19.188,4.684 C20.659,4.88 21.189,5.396 21.488,6.94 C22.176,6.834 22.873,6.727 23.901,6.568 C23.246,7.118 22.894,7.413 22.515,7.732 C23.661,8.22 24.659,8.646 25.657,9.072 C25.632,9.177 25.606,9.282 25.581,9.388 L24.288,9.388 C24.275,9.451 24.263,9.514 24.25,9.578 C24.697,9.829 25.144,10.081 25.592,10.333 C25.563,10.405 25.536,10.479 25.507,10.552 C25.056,10.51 24.605,10.469 24.153,10.428 C24.883,11.097 25.594,11.748 26.305,12.399 C26.26,12.443 26.216,12.488 26.171,12.532 C25.2,12.091 24.229,11.65 22.989,11.086 C23.316,11.9 23.522,12.414 23.844,13.215 C23.173,12.835 22.779,12.612 22.348,12.368 C22.173,12.991 22.001,13.604 21.814,14.269 C21.492,14.294 21.124,14.322 20.757,14.35 C20.743,14.41 20.728,14.469 20.714,14.529 C21.105,14.67 21.497,14.81 22.168,15.049 C21.553,15.15 21.226,15.203 20.855,15.263 C21.527,15.712 22.171,16.14 23.057,16.731 C21.86,16.467 20.994,16.277 19.95,16.046 C20.306,16.59 20.538,16.944 20.784,17.32 C19.831,17.543 19.617,19.33 20.241,21.435 C21.94,20.58 23.554,19.407 25.348,18.969 C27.108,18.54 29.137,18.517 30.803,19.613 C32.41,20.671 33.895,21.913 35.433,23.074 C35.377,23.191 35.321,23.309 35.265,23.426 C34.933,23.405 34.576,23.296 34.277,23.384 C33.794,23.527 33.013,23.727 32.946,24.031 C32.589,25.666 31.368,26.948 31.167,28.566 C32.447,29.359 33.709,30.142 34.972,30.925 C34.949,31.057 34.926,31.19 34.903,31.322 C34.274,31.63 33.646,31.938 33.018,32.246 C32.545,32.26 32.072,32.278 31.599,32.288 C27.552,32.375 23.506,32.461 19.459,32.546 C18.33,32.458 17.202,32.369 16.074,32.279" fill="#141413"/>
    <path d="M90.708,47.49 C91.059,47.823 91.526,48.268 91.962,48.682 C91.76,49.207 91.309,49.871 91.287,50.55 C91.259,51.483 91.063,52.513 92.023,53.303 C92.417,53.627 92.453,54.385 92.652,54.945 C92.777,55.295 92.903,55.645 93.14,56.308 C93.53,55.751 93.755,55.43 94.015,55.059 C94.762,55.372 95.451,55.662 96.104,55.936 C96.553,57.923 94.646,58.607 94.022,59.969 C93.925,60.184 93.687,60.385 93.69,60.589 C93.74,63.366 93.809,66.144 93.899,68.921 C93.94,70.183 93.976,71.386 94.784,72.554 C95.327,73.339 95.282,74.53 95.518,75.621 C96.068,75.572 96.568,75.527 97.124,75.478 L97.124,80.293 L83.801,80.293 C83.801,78.699 83.841,77.091 83.791,75.485 C83.729,73.508 84.861,71.947 85.483,70.202 C86.119,68.42 86.641,66.58 87.011,64.725 C87.215,63.701 86.998,62.594 86.988,61.523 C86.983,61.044 86.97,60.554 87.053,60.086 C87.145,59.561 87.541,59.058 86.667,58.74 C86.505,58.681 86.495,57.709 86.687,57.28 C87.058,56.448 87.197,55.725 86.585,54.967 C86.474,54.828 86.454,54.596 86.438,54.404 C86.359,53.434 86.229,52.461 86.249,51.491 C86.264,50.78 86.469,50.068 86.619,49.363 C86.674,49.104 86.9,48.865 86.905,48.614 C86.94,46.831 86.957,45.047 86.932,43.264 C86.926,42.884 86.644,42.509 86.635,42.128 C86.625,41.753 86.746,41.348 86.907,41.003 C87.197,40.378 87.561,39.788 87.922,39.129 C88.512,39.882 87.972,40.9 88.827,41.409 C88.893,41.448 88.88,41.741 88.812,41.865 C87.803,43.663 88.126,45.594 88.263,47.497 C88.284,47.796 88.541,48.078 88.689,48.368 C88.898,48.203 89.085,47.978 89.322,47.886 C89.768,47.714 90.242,47.619 90.708,47.49" fill="#141413"/>
    <path d="M55.666,17.146 C53.852,16.934 53.574,17.165 53.696,18.718 L55.749,18.718 C55.717,18.126 55.691,17.627 55.666,17.146 M54.947,27.586 L54.947,25.257 C54.446,25.28 54.029,25.299 53.609,25.317 L53.609,27.586 z M57.924,18.589 C58.931,18.527 59.818,18.474 60.704,18.42 C60.853,17.542 60.887,16.821 59.937,16.634 C58.707,16.391 58.265,16.819 57.924,18.589 M49.536,27.604 L51.848,27.604 L51.848,25.535 L49.536,25.535 z M62.772,27.922 L64.254,27.922 L64.254,24.802 L62.772,24.802 z M62.772,24.802 M58.844,27.96 L60.508,27.96 L60.508,24.85 L58.844,24.85 z M58.853,29.187 C59.502,30.796 58.36,32.548 59.921,33.926 C60.61,34.535 60.474,34.69 61.032,33.727 C59.74,33.352 60.658,32.4 60.545,31.71 C60.412,30.907 60.514,30.064 60.514,29.187 z M51.942,28.903 L49.426,28.903 C49.7,30.149 50.023,31.26 50.155,32.394 C50.208,32.843 49.968,33.513 49.626,33.776 C49.168,34.129 48.826,33.884 48.416,33.257 C47.655,32.094 48.759,31.111 48.39,30.067 C48.233,29.625 48.066,29.173 48.014,28.713 C47.977,28.383 48.076,28.016 48.195,27.695 C48.499,26.872 48.907,26.09 47.916,25.385 C47.715,25.242 47.617,24.583 47.768,24.383 C48.495,23.415 48.541,23.264 47.76,22.012 L49.817,22.012 C49.658,22.73 49.512,23.387 49.337,24.176 L52.079,24.176 C52.173,22.811 52.271,21.407 52.358,20.159 C51.357,19.877 50.525,19.644 49.693,19.409 C49.721,19.262 49.749,19.114 49.776,18.966 L52.197,18.966 C52.503,17.428 52.321,17.279 50.929,17.233 C50.395,17.216 49.869,16.814 49.352,16.561 C48.665,16.225 47.991,15.863 47.09,15.397 C47.426,15.209 47.757,15.022 48.081,14.84 C47.849,14.513 47.715,14.325 47.574,14.126 C54.777,15.04 61.72,13.957 68.472,11.725 C68.556,12.462 68.646,13.25 68.752,14.172 C67.143,14.835 65.682,16.233 63.551,16.254 C62.231,16.268 62.083,16.68 62.313,18.251 C63.405,18.155 64.506,18.059 65.706,17.954 C65.225,20.132 63.315,18.764 62.177,19.716 C62.253,20.798 62.344,22.097 62.441,23.5 L64.265,23.5 C64.047,23.106 63.875,22.798 63.594,22.29 L65.375,22.29 C65.51,26.111 65.638,29.764 65.77,33.509 C64.944,33.805 64.721,33.625 64.624,32.45 C64.537,31.386 64.357,30.33 64.205,29.173 L62.822,29.173 C62.598,31.29 63.616,33.247 63.274,35.368 C63.271,35.372 63.211,35.482 63.168,35.476 C61.595,35.248 60.059,34.845 58.425,34.92 C57.881,34.946 57.374,34.352 57.367,33.295 C57.359,31.854 58.065,30.209 56.861,28.863 C56.757,28.746 56.728,28.402 56.82,28.293 C57.864,27.046 57.655,25.799 56.912,24.512 C56.806,24.327 56.773,23.897 56.878,23.825 C57.885,23.125 56.968,22.679 56.45,21.893 L59.229,21.893 C59.027,22.523 58.885,22.973 58.741,23.422 C59.308,23.513 59.875,23.604 60.622,23.725 L60.622,19.513 C58.404,19.614 56.078,19.72 53.655,19.83 L53.655,24.133 L55.047,24.133 C54.874,23.63 54.725,23.194 54.517,22.584 L56.097,22.584 C56.508,26.096 55.537,29.549 56.994,32.899 L54.93,32.899 L54.93,28.821 L53.53,28.821 C53.899,30.07 53.217,31.4 54.165,32.543 C54.264,32.662 54.281,32.948 54.209,33.094 C53.742,34.048 54.144,34.663 55.094,35.156 C53.496,35.646 52.306,35.047 51.336,34.311 C51.647,33.905 51.988,33.461 52.397,32.927 C51.816,32.689 51.422,32.528 51.143,32.413 C52.157,31.424 51.65,30.128 51.942,28.903" fill="#141413"/>
    <path d="M28.081,63.707 C28.007,63.584 27.933,63.46 27.859,63.337 C27.148,63.337 26.437,63.313 25.729,63.354 C25.565,63.363 25.414,63.592 25.256,63.72 C25.399,63.866 25.523,64.107 25.689,64.141 C26.231,64.249 26.796,64.357 27.338,64.311 C27.602,64.287 27.834,63.919 28.081,63.707 M19.953,67.311 C21.005,67.388 21.23,66.594 20.75,64.531 C19.588,65.303 20.152,66.405 19.953,67.311 M17.077,59.332 C16.976,59.411 16.874,59.489 16.773,59.568 C16.942,59.818 17.075,60.241 17.286,60.285 C17.895,60.412 18.538,60.415 19.165,60.4 C19.316,60.396 19.564,60.14 19.576,59.985 C19.586,59.852 19.342,59.594 19.182,59.568 C18.486,59.454 17.779,59.404 17.077,59.332 M27.791,62.911 C27.897,62.811 28.003,62.709 28.109,62.607 C27.853,62.368 27.63,61.991 27.334,61.922 C26.849,61.809 26.307,61.841 25.807,61.921 C25.598,61.954 25.434,62.267 25.249,62.453 C25.427,62.605 25.596,62.875 25.785,62.891 C26.45,62.945 27.122,62.911 27.791,62.911 M21.389,67.263 C21.499,67.361 21.609,67.46 21.719,67.559 C21.944,67.295 22.302,67.06 22.366,66.762 C22.473,66.267 22.432,65.725 22.368,65.214 C22.343,65.012 22.089,64.839 21.939,64.653 C21.755,64.847 21.435,65.026 21.414,65.236 C21.346,65.906 21.389,66.587 21.389,67.263 M24.947,56.22 C24.538,56.314 24.089,56.343 24.076,56.433 C23.964,57.216 23.916,58.01 23.894,58.801 C23.893,58.881 24.233,59.073 24.343,59.03 C24.514,58.964 24.718,58.753 24.741,58.58 C24.838,57.874 24.872,57.159 24.947,56.22 M16.919,60.785 C16.752,61.578 16.854,62.006 17.718,61.818 C18.14,61.727 18.594,61.787 19.018,61.703 C19.232,61.66 19.412,61.447 19.606,61.311 C19.404,61.136 19.215,60.831 18.997,60.81 C18.332,60.742 17.656,60.785 16.919,60.785 M13.562,59.106 L13.562,60.228 L16.327,60.228 C16.394,59.186 16.246,59.125 13.562,59.106 M24.079,55.82 C25.055,55.852 25.274,55.236 25.129,52.929 L24.079,52.929 z M22.511,58.918 C23.591,59.059 23.812,58.417 23.397,56.349 C22.282,56.331 22.188,56.604 22.511,58.918 M31.334,63.143 L31.334,62.013 C28.817,61.622 28.354,61.77 28.523,62.963 C29.414,63.02 30.318,63.077 31.334,63.143 M21.194,74.26 C21.63,74.228 21.968,74.202 22.334,74.175 L22.334,71.336 L21.194,71.336 z M31.349,64.551 C31.397,63.329 31.056,63.212 28.491,63.496 C28.417,64.518 28.829,64.675 31.349,64.551 M19.748,70.767 C20.895,70.789 21.113,70.145 20.778,67.91 C19.724,67.849 19.637,68.078 19.748,70.767 M20.649,71.363 C19.431,71.299 19.223,71.853 19.539,74.207 L20.649,74.207 z M31.829,63.645 C31.869,64.827 32.61,65.079 34.775,64.734 L34.775,63.645 z M13.519,61.756 C16.156,62.135 16.535,61.998 16.245,60.745 C15.361,60.704 14.463,60.663 13.519,60.619 z M12.955,59.021 C11.983,58.947 11.06,58.878 10.018,58.799 C10.049,59.303 10.072,59.663 10.097,60.064 C11.103,60.118 11.994,60.166 12.955,60.218 z M22.352,67.877 C21.169,67.865 20.915,68.678 21.34,70.843 C21.665,70.817 21.997,70.792 22.352,70.765 z M23.539,55.884 L23.539,52.826 C23.115,52.877 22.787,52.916 22.479,52.954 C22.231,55.78 22.255,55.853 23.539,55.884 M25.386,49.529 L24.179,49.529 L24.179,52.372 C25.38,52.455 25.596,51.936 25.386,49.529 M34.848,63.127 C34.817,62.66 34.792,62.296 34.771,61.985 L31.758,61.985 C31.805,62.424 31.841,62.754 31.881,63.127 z M38.188,61.971 L35.265,61.971 C35.289,62.43 35.309,62.801 35.331,63.212 C36.351,63.259 37.248,63.301 38.188,63.344 z M24.304,46.09 L24.304,48.956 L25.565,48.956 C25.626,47.968 25.683,47.044 25.741,46.09 z M22.486,48.972 L23.768,48.972 L23.768,46.091 L22.486,46.091 z M22.486,46.091 M10.123,60.579 C9.978,62.003 10.472,62.196 13.019,61.727 C12.996,61.367 12.972,60.997 12.945,60.579 z M38.179,63.729 L35.327,63.729 C35.245,65.191 35.377,65.252 38.179,65.067 z M22.439,52.322 C23.84,52.55 23.999,52.169 23.679,49.553 L22.439,49.553 z M9.593,58.71 C8.539,58.649 7.606,58.595 6.651,58.54 L6.651,59.988 L9.593,59.988 z M21.033,77.619 L22.317,77.619 L22.317,74.722 L21.033,74.722 z M21.033,74.722 M19.08,77.582 C20.674,77.822 20.956,77.22 20.519,74.738 L19.318,74.738 C19.237,75.696 19.162,76.6 19.08,77.582 M9.65,60.494 L6.549,60.494 C6.573,60.983 6.593,61.367 6.619,61.875 C7.254,61.875 7.806,61.882 8.357,61.873 C8.749,61.866 9.142,61.84 9.581,61.82 C9.603,61.387 9.622,61.035 9.65,60.494 M18.235,78.262 L23.502,78.262 L23.502,74.217 C24.218,75.847 24.785,77.14 25.376,78.487 C25.139,78.516 24.893,78.497 24.694,78.585 C24.518,78.662 24.396,78.859 24.249,79.003 C24.405,79.139 24.549,79.372 24.717,79.391 C25.231,79.448 25.759,79.391 26.272,79.451 C26.433,79.47 26.685,79.722 26.683,79.863 C26.68,80.026 26.47,80.24 26.297,80.33 C26.136,80.413 25.906,80.369 25.706,80.369 C21.347,80.37 16.987,80.38 12.628,80.349 C12.282,80.346 11.939,80.053 11.594,79.894 C11.931,79.737 12.265,79.576 12.605,79.429 C12.673,79.399 12.768,79.439 12.843,79.418 C13.287,79.288 13.728,79.151 14.17,79.017 C13.777,78.79 13.383,78.563 12.918,78.296 C14.88,74.87 15.483,70.959 15.624,67.022 C15.236,66.678 14.862,66.435 14.627,66.095 C14.532,65.956 14.673,65.55 14.828,65.37 C15.017,65.151 15.334,65.042 15.596,64.886 C15.237,64.71 14.878,64.534 14.353,64.277 C14.547,63.818 14.764,63.303 15.02,62.696 L6.341,62.696 L6.341,58.1 C7.904,58.214 9.442,58.316 10.978,58.44 C13.527,58.645 16.072,58.931 18.625,59.046 C19.79,59.1 20.354,59.408 20.13,60.644 C20.075,60.95 20.122,61.275 20.122,61.702 C20.602,61.773 21.012,61.835 21.575,61.92 L21.575,45.729 L26.209,45.729 C25.831,50.338 25.457,54.897 25.077,59.528 L22.499,59.528 L22.499,60.991 L38.564,60.991 L38.564,65.636 C33.954,65.262 29.43,64.894 24.771,64.517 L24.771,61.954 L23.345,61.954 L23.345,77.939 L18.663,77.939 C19.027,73.399 19.392,68.853 19.766,64.183 L22.045,64.183 C22.046,64.114 22.047,64.046 22.048,63.977 L19.574,63.977 C19.132,68.689 18.69,73.403 18.235,78.262" fill="#141413"/>
    <path d="M16.844,104.227 C18.666,102.26 20.275,100.523 21.933,98.733 C20.819,97.463 19.76,96.256 18.559,94.887 C17.975,98.068 17.439,100.987 16.844,104.227 M37.597,104.093 L47.315,104.093 C44.666,100.981 42.145,98.018 39.472,94.877 C38.819,98.087 38.219,101.04 37.597,104.093 M31.138,88.876 C30.438,94.093 29.784,98.966 29.089,104.148 C31.966,101.434 34.626,98.923 37.352,96.351 C35.313,93.899 33.329,91.512 31.138,88.876 M31.109,87.991 C33.395,90.635 35.612,93.2 37.9,95.847 C38.441,95.247 38.942,94.691 39.558,94.006 C42.603,97.532 45.609,101.012 48.746,104.644 L9.447,104.644 C12.532,101.038 15.491,97.58 18.564,93.987 C19.816,95.414 21.012,96.777 22.301,98.246 C25.234,94.831 28.138,91.45 31.109,87.991" fill="#141413"/>
    <path d="M53.504,62.772 L56.52,62.772 C56.111,61.991 55.9,61.384 55.507,60.937 C55.349,60.756 54.615,60.773 54.454,60.962 C54.072,61.416 53.876,62.025 53.504,62.772 M54.923,71.531 C55.442,71.531 55.971,71.466 56.479,71.544 C57.484,71.699 57.726,71.119 57.794,70.316 C57.934,68.64 56.74,67.07 55.237,66.955 C53.655,66.834 52.355,68.058 52.186,69.828 C52.061,71.138 52.411,71.527 53.725,71.53 C54.124,71.531 54.524,71.53 54.923,71.531 M65.31,80.302 L60.624,80.302 C60.077,75.666 58.235,73.558 54.857,73.646 C51.542,73.732 49.669,75.988 49.423,80.278 L44.679,80.278 C45.292,79.285 45.921,78.384 46.427,77.419 C47.355,75.651 48.811,74.126 48.818,71.916 C48.82,71.465 49.658,71.075 49.856,70.558 C50.467,68.959 51.091,67.344 51.461,65.68 C52.127,62.686 52.723,59.668 53.139,56.63 C53.561,53.557 53.73,50.449 54.015,47.299 C52.995,47.048 52.557,46.78 53.23,45.723 C53.586,45.163 53.447,44.316 54.357,44.049 C54.49,44.01 54.498,43.472 54.526,43.161 C54.631,42.03 54.721,40.897 54.816,39.765 L55.194,39.746 C55.287,40.851 55.32,41.965 55.5,43.056 C55.575,43.513 56.008,43.899 56.195,44.352 C56.529,45.161 56.818,45.991 57.056,46.832 C57.072,46.888 56.503,47.109 56.085,47.313 C56.201,49.209 56.272,51.16 56.451,53.101 C56.63,55.043 56.869,56.983 57.17,58.911 C57.465,60.805 57.789,62.705 58.254,64.562 C58.729,66.452 59.145,68.426 60.046,70.12 C60.922,71.769 61.311,73.597 62.266,75.187 C63.266,76.852 64.253,78.524 65.31,80.302" fill="#141413"/>
    <path d="M91.446,11.314 C91.155,11.39 90.863,11.466 90.571,11.542 C88.411,12.219 86.251,12.896 84.091,13.573 C84.116,13.661 84.142,13.75 84.168,13.837 L98.453,13.837 L98.523,13.575 C96.164,12.821 93.805,12.068 91.446,11.314 M91.298,14.903 C87.938,14.905 84.579,14.916 81.22,14.887 C80.889,14.885 80.56,14.642 80.231,14.51 C80.493,14.236 80.705,13.829 81.025,13.708 C84.232,12.493 87.453,11.309 90.686,10.163 C91.091,10.02 91.634,10.018 92.039,10.162 C95.271,11.307 98.491,12.49 101.699,13.705 C102.016,13.826 102.224,14.237 102.484,14.513 C102.154,14.643 101.824,14.883 101.493,14.885 C98.094,14.913 94.696,14.902 91.298,14.903" fill="#141413"/>
    <path d="M99.008,33.984 C98.185,33.913 97.433,33.849 96.771,33.792 C97.551,33.255 98.279,32.753 99.008,32.252 C98.953,32.118 98.9,31.984 98.845,31.851 C97.019,32.062 95.192,32.272 93.063,32.518 C93.668,32.912 94.071,33.174 94.472,33.436 C94.405,33.479 94.34,33.521 94.274,33.564 C94.49,33.98 94.708,34.395 94.987,34.928 L89.903,34.928 C89.894,34.811 89.886,34.694 89.878,34.578 C90.939,34.51 91.999,34.442 93.06,34.374 C93.067,34.25 93.073,34.125 93.08,34 C92.544,33.864 92.008,33.728 91.327,33.556 C91.609,33.427 91.808,33.372 91.961,33.255 C92.119,33.135 92.232,32.956 92.365,32.802 C92.184,32.691 92.015,32.543 91.82,32.475 C91.262,32.281 90.698,32.001 90.127,31.975 C89.427,31.944 88.717,32.137 87.804,32.261 C88.529,32.836 89,33.209 89.582,33.671 C88.956,33.86 88.511,33.995 87.907,34.178 C88.287,34.481 88.569,34.704 88.999,35.047 C86.69,35.436 84.538,35.672 82.624,34.69 C85.673,34.376 85.673,34.376 87.159,33.166 C86.807,33.038 86.493,32.923 86.169,32.805 C86.284,32.638 86.39,32.486 86.6,32.182 C85.886,32.095 85.259,31.907 84.663,31.981 C84.154,32.044 83.682,32.406 83.185,32.641 C83.561,33.132 83.833,33.488 84.244,34.026 L80.379,34.026 C80.924,33.887 81.439,33.756 82.008,33.612 C81.454,32.954 80.961,32.369 80.292,31.575 L103.324,31.575 C103.338,31.663 103.351,31.752 103.364,31.839 C102.336,31.913 101.308,31.986 99.899,32.087 C100.303,32.732 100.612,33.225 100.953,33.77 C100.716,33.854 100.33,33.99 99.858,34.157 C99.982,34.427 100.085,34.654 100.306,35.136 C98.477,35.294 96.741,35.442 95.007,35.592 C94.992,35.437 94.979,35.281 94.964,35.126 C95.714,35.088 96.47,34.976 97.213,35.033 C98.045,35.097 98.679,34.955 99.008,33.984" fill="#141413"/>
    <path d="M103.727,29.69 L103.727,30.874 L79.076,30.874 C79.051,30.481 79.03,30.137 79,29.69 z" fill="#141413"/>
    <path d="M16.073,32.279 C17.201,32.368 18.33,32.457 19.458,32.546 C19.938,32.666 20.421,32.905 20.895,32.888 C24.948,32.745 28.999,32.555 33.051,32.38 C32.962,33.226 32.215,33.277 31.664,33.635 C30.815,34.19 29.943,34.563 28.992,34.904 C28.187,35.194 27.382,35.763 26.592,35.604 C26.308,35.547 26.088,35.176 25.749,34.866 C25.887,34.739 26.06,34.582 26.256,34.403 C26.008,34.34 25.758,34.276 25.509,34.213 C25.506,34.14 25.504,34.067 25.502,33.993 L27.312,33.841 C27.309,33.803 27.306,33.766 27.303,33.728 L22.974,33.728 C23.228,33.998 23.352,34.129 23.602,34.395 L20.87,34.395 C20.971,34.69 21.025,34.844 21.038,34.883 C19.638,35.102 18.259,35.318 16.879,35.533 C16.88,35.597 16.881,35.662 16.882,35.726 C17.279,35.775 17.675,35.823 18.071,35.872 C18.074,35.95 18.078,36.029 18.081,36.108 C16.172,36.261 14.263,36.414 12.354,36.568 C12.336,36.466 12.319,36.364 12.302,36.262 C13.097,36.119 13.892,35.976 15.017,35.773 C14.489,35.605 14.285,35.539 13.997,35.447 C14.136,35.373 14.218,35.303 14.309,35.284 C15.771,34.985 17.234,34.692 18.694,34.156 C17.765,34.013 16.837,33.87 15.856,33.719 C16.505,33.683 17.109,33.649 17.713,33.614 C17.73,33.486 17.746,33.356 17.762,33.227 C16.847,33.083 15.933,32.939 15.033,32.797 C15.339,32.644 15.706,32.462 16.073,32.279" fill="#141413"/>
    <path d="M95.612,26.246 L92.674,26.246 C92.841,22.617 93.004,19.054 93.17,15.421 L95.126,15.421 C95.288,19.034 95.448,22.595 95.612,26.246" fill="#141413"/>
    <path d="M87.583,15.401 L89.542,15.401 C89.709,18.993 89.876,22.585 90.047,26.245 L87.12,26.245 C87.273,22.657 87.426,19.094 87.583,15.401" fill="#141413"/>
    <path d="M81.948,15.413 L83.94,15.413 C84.085,19.01 84.228,22.579 84.375,26.232 L81.486,26.232 C81.64,22.618 81.793,19.048 81.948,15.413" fill="#141413"/>
    <path d="M100.777,15.439 C100.931,19.033 101.083,22.565 101.239,26.204 L98.448,26.204 C98.448,25.212 98.422,24.23 98.453,23.25 C98.519,21.177 98.627,19.106 98.697,17.034 C98.758,15.224 98.746,15.224 100.777,15.439" fill="#141413"/>
    <path d="M80.334,29.111 C79.97,28.202 80.376,28.066 81.066,28.067 C87.931,28.078 94.795,28.066 101.659,28.093 C101.993,28.094 102.325,28.404 102.658,28.57 C102.303,28.75 101.947,29.085 101.59,29.087 C96.521,29.121 91.453,29.111 86.385,29.111 z" fill="#141413"/>
    <path d="M101.178,27.599 L81.699,27.599 C81.627,27.499 81.557,27.399 81.486,27.3 C81.746,27.094 82.007,26.71 82.269,26.709 C88.378,26.674 94.487,26.674 100.596,26.707 C100.861,26.709 101.122,27.092 101.386,27.298 C101.317,27.398 101.247,27.498 101.178,27.599" fill="#141413"/>
    <path d="M33.051,32.38 C29,32.555 24.948,32.745 20.896,32.888 C20.422,32.905 19.938,32.666 19.459,32.546 C23.506,32.46 27.552,32.375 31.599,32.287 C32.072,32.277 32.545,32.26 33.018,32.246 C33.051,32.285 33.062,32.33 33.051,32.38" fill="#FFFFFE"/>
    <path d="M76.152,99.965 L74.698,99.965 C74.839,99.164 74.966,98.436 75.122,97.551 C76.478,98.172 76.146,99.055 76.152,99.965" fill="#FFFFFE"/>
    <path d="M79.418,104.622 L77.631,104.622 C77.819,103.869 77.964,103.214 78.169,102.578 C78.191,102.509 78.73,102.492 78.754,102.556 C78.992,103.177 79.171,103.82 79.418,104.622" fill="#FFFFFE"/>
    <path d="M75.822,92.718 C75.973,93.444 76.126,94.169 76.301,95.007 L74.619,95.007 C74.81,94.194 74.985,93.451 75.161,92.708 C75.381,92.712 75.601,92.715 75.822,92.718" fill="#FFFFFE"/>
    <path d="M75.833,102.333 C75.985,103.046 76.138,103.758 76.316,104.593 L74.634,104.593 C74.8,103.806 74.952,103.081 75.104,102.356 C75.348,102.349 75.59,102.341 75.833,102.333" fill="#FFFFFE"/>
    <path d="M79.569,99.87 C78.899,99.925 78.522,99.955 77.855,100.01 C78.032,99.208 78.154,98.554 78.343,97.919 C78.369,97.837 78.91,97.796 78.926,97.841 C79.157,98.462 79.337,99.102 79.569,99.87" fill="#FFFFFE"/>
    <path d="M80.342,94.978 C80.529,94.195 80.684,93.55 80.839,92.906 C81.028,92.888 81.215,92.871 81.404,92.852 C81.611,93.514 81.817,94.176 82.067,94.978 z" fill="#FFFFFE"/>
    <path d="M73.472,95.075 L71.78,95.075 C71.98,94.359 72.144,93.714 72.358,93.086 C72.38,93.02 72.841,93.006 72.858,93.053 C73.069,93.653 73.237,94.27 73.472,95.075" fill="#FFFFFE"/>
    <path d="M77.5,95.099 C77.729,94.264 77.881,93.656 78.082,93.063 C78.102,93.004 78.553,92.994 78.573,93.048 C78.799,93.633 78.978,94.236 79.218,94.986 C78.598,95.027 78.228,95.051 77.5,95.099" fill="#FFFFFE"/>
    <path d="M73.395,104.578 L71.944,104.578 C72.084,103.788 72.208,103.092 72.333,102.396 C72.546,102.394 72.76,102.391 72.974,102.39 C73.108,103.085 73.241,103.779 73.395,104.578" fill="#FFFFFE"/>
    <path d="M71.911,100.019 C72.036,99.232 72.148,98.522 72.279,97.694 C73.654,98.276 73.117,99.201 73.318,100.019 z" fill="#FFFFFE"/>
    <path d="M82.295,104.639 L80.79,104.639 C80.942,103.856 81.076,103.168 81.21,102.481 L81.809,102.481 C81.958,103.143 82.108,103.806 82.295,104.639" fill="#FFFFFE"/>
    <path d="M82.329,99.922 L80.798,99.922 C80.933,99.127 81.055,98.421 81.176,97.715 L81.811,97.686 C81.969,98.364 82.126,99.043 82.329,99.922" fill="#FFFFFE"/>
    <path d="M69.529,100.026 C69.682,99.287 69.811,98.667 69.94,98.047 C70.117,98.036 70.293,98.025 70.469,98.013 C70.626,98.646 70.783,99.279 70.968,100.026 z" fill="#FFFFFE"/>
    <path d="M69.446,95.373 C69.653,94.508 69.806,93.866 69.959,93.226 C70.148,93.215 70.338,93.205 70.527,93.195 C70.679,93.83 70.832,94.465 71.024,95.266 C70.433,95.306 70.044,95.332 69.446,95.373" fill="#FFFFFE"/>
    <path d="M70.945,104.378 L69.549,104.378 C69.689,103.635 69.811,102.992 69.932,102.35 C70.111,102.341 70.289,102.332 70.467,102.324 C70.618,102.972 70.768,103.619 70.945,104.378" fill="#FFFFFE"/>
    <path d="M83.177,104.635 C83.404,103.705 83.557,103.079 83.71,102.453 C83.877,102.452 84.044,102.451 84.211,102.451 C84.351,103.036 84.491,103.622 84.672,104.376 C84.197,104.459 83.858,104.518 83.177,104.635" fill="#FFFFFE"/>
    <path d="M84.654,99.881 L83.232,99.881 C83.383,99.149 83.512,98.521 83.641,97.893 C83.817,97.888 83.992,97.883 84.167,97.878 C84.317,98.494 84.467,99.111 84.654,99.881" fill="#FFFFFE"/>
    <path d="M68.071,93.871 C68.168,94.385 68.383,94.916 68.31,95.406 C68.274,95.649 67.713,95.815 67.388,96.017 C67.285,95.943 67.181,95.87 67.078,95.798 C67.226,95.151 67.375,94.505 67.522,93.859 C67.705,93.863 67.888,93.866 68.071,93.871" fill="#FFFFFE"/>
    <path d="M83.24,95.088 C83.398,94.394 83.534,93.799 83.67,93.203 C83.853,93.196 84.037,93.188 84.22,93.179 C84.372,93.808 84.523,94.437 84.717,95.237 C84.106,95.175 83.772,95.143 83.24,95.088" fill="#FFFFFE"/>
    <path d="M67.169,100.142 C67.286,99.505 67.403,98.869 67.52,98.233 C67.689,98.23 67.858,98.227 68.027,98.224 C68.107,98.787 68.253,99.35 68.231,99.909 C68.224,100.081 67.763,100.237 67.511,100.4 C67.397,100.314 67.283,100.228 67.169,100.142" fill="#FFFFFE"/>
    <path d="M86.651,98.012 C86.763,98.651 86.875,99.289 87.029,100.167 C86.503,100.038 86,99.986 85.995,99.903 C85.957,99.279 86.016,98.648 86.045,98.019 C86.247,98.017 86.449,98.014 86.651,98.012" fill="#FFFFFE"/>
    <path d="M86.737,102.47 C86.665,103.092 86.593,103.714 86.521,104.336 C86.3,104.31 85.886,104.284 85.886,104.257 C85.884,103.634 85.927,103.011 85.963,102.388 C86.22,102.415 86.479,102.443 86.737,102.47" fill="#FFFFFE"/>
    <path d="M88.636,98.255 C88.636,98.859 88.639,99.462 88.612,100.065 C88.612,100.074 88.079,100.084 88.077,100.067 C88.018,99.467 87.993,98.863 87.963,98.262 C88.188,98.259 88.411,98.257 88.636,98.255" fill="#FFFFFE"/>
    <path d="M65.471,98.431 C65.881,98.534 65.946,98.538 65.947,98.551 C66.013,99.131 66.074,99.712 66.135,100.294 C65.913,100.286 65.5,100.291 65.499,100.272 C65.464,99.695 65.471,99.115 65.471,98.431" fill="#FFFFFE"/>
    <path d="M66.044,102.292 C66.13,102.869 66.217,103.447 66.308,104.054 C65.174,104.025 65.036,103.485 66.044,102.292" fill="#FFFFFE"/>
    <path d="M68.57,104.208 C67.265,104.104 67.108,103.49 67.998,101.991 C68.221,102.855 68.375,103.451 68.57,104.208" fill="#FFFFFE"/>
    <path d="M88.759,102.409 C88.732,102.992 88.703,103.575 88.675,104.158 C88.453,104.133 88.038,104.107 88.038,104.082 C88.038,103.51 88.084,102.936 88.12,102.364 C88.333,102.379 88.546,102.394 88.759,102.409" fill="#FFFFFE"/>
    <path d="M65.204,96.298 C65.375,95.69 65.523,95.161 65.735,94.406 C66.599,95.727 66.457,96.151 65.204,96.298" fill="#FFFFFE"/>
    <path d="M14.702,17.409 C14.903,17.178 15.103,16.947 15.336,16.678 C15.365,17.198 15.394,17.725 15.432,18.41 C15.701,18.06 15.876,17.832 16.179,17.438 C16.268,17.958 16.325,18.287 16.438,18.944 C16.69,18.386 16.819,18.101 17.066,17.554 C17.637,20.726 18.17,23.681 18.735,26.82 C15.031,23.256 12.671,19.143 11.943,13.921 C13.09,14.777 14.171,15.134 15.556,15.187 C15.165,15.855 14.777,16.516 14.39,17.179 C14.494,17.255 14.598,17.332 14.702,17.409" fill="#FFFFFE"/>
    <path d="M29.601,23.548 C29.496,24.282 29.445,25.033 29.251,25.745 C29.189,25.971 28.752,26.214 28.468,26.239 C26.747,26.389 25.083,26.022 23.715,25.009 C23.197,24.625 23.122,23.642 22.745,22.677 C25.21,22.99 27.298,23.256 29.601,23.548" fill="#FFFFFE"/>
    <path d="M19.735,25.754 C18.377,23.416 17.796,19.359 18.66,17.433 C18.847,18.155 19.123,18.868 19.199,19.601 C19.307,20.627 19.216,21.672 19.302,22.701 C19.387,23.724 19.586,24.737 19.735,25.754" fill="#FFFFFE"/>
    <path d="M18.301,9.173 C17.069,10.041 16.319,11.717 14.462,10.617 C14.865,10.407 15.297,10.182 15.729,9.958 C15.714,9.896 15.698,9.835 15.683,9.773 L14.034,9.773 C14.497,8.912 15.792,8.708 18.301,9.173" fill="#FFFFFE"/>
    <path d="M28.995,27.538 C28.737,27.649 28.468,27.878 28.224,27.854 C26.645,27.695 25.072,27.481 23.392,27.272 L23.392,25.141 C24.948,26.716 26.737,27.581 28.978,27.163 C28.983,27.288 28.989,27.413 28.995,27.538" fill="#FFFFFE"/>
    <path d="M30.673,28.522 C30.25,28.384 29.92,28.276 29.63,28.181 C29.251,26.859 30.361,26.636 31.148,26.032 L30.021,26.032 C30.138,25.505 30.244,25.028 30.387,24.379 C30.874,24.637 31.269,24.847 31.747,25.1 C31.385,26.252 31.037,27.362 30.673,28.522" fill="#FFFFFE"/>
    <path d="M16.716,12.784 C15.708,12.6 14.728,12.421 13.747,12.242 C16.26,11.444 16.716,11.555 16.716,12.784" fill="#FFFFFE"/>
    <path d="M21.411,26.483 C20.838,25.319 20.326,24.071 20.405,22.738 C20.556,22.716 20.707,22.694 20.858,22.671 C21.042,23.942 21.227,25.212 21.411,26.483" fill="#FFFFFE"/>
    <path d="M58.853,29.187 L60.514,29.187 C60.514,30.064 60.413,30.907 60.545,31.71 C60.659,32.4 59.741,33.352 61.033,33.727 C60.474,34.69 60.611,34.535 59.921,33.926 C58.361,32.548 59.502,30.796 58.853,29.187" fill="#FFFFFE"/>
    <path d="M58.844,24.85 L60.508,24.85 L60.508,27.96 L58.844,27.96 z" fill="#FFFFFE"/>
    <path d="M62.773,24.801 L64.255,24.801 L64.255,27.921 L62.773,27.921 z" fill="#FFFFFE"/>
    <path d="M49.536,25.534 L51.848,25.534 L51.848,27.603 L49.536,27.603 z" fill="#FFFFFE"/>
    <path d="M57.924,18.588 C58.265,16.818 58.707,16.39 59.938,16.633 C60.887,16.82 60.854,17.542 60.704,18.419 C59.819,18.473 58.931,18.526 57.924,18.588" fill="#FFFFFE"/>
    <path d="M54.947,27.586 L53.609,27.586 L53.609,25.317 C54.029,25.299 54.446,25.28 54.947,25.257 z" fill="#FFFFFE"/>
    <path d="M55.666,17.146 C55.691,17.627 55.717,18.126 55.749,18.718 L53.696,18.718 C53.574,17.165 53.852,16.934 55.666,17.146" fill="#FFFFFE"/>
    <path d="M9.65,60.494 C9.622,61.035 9.603,61.387 9.581,61.82 C9.142,61.84 8.75,61.866 8.358,61.873 C7.806,61.882 7.254,61.875 6.619,61.875 C6.593,61.367 6.573,60.983 6.549,60.494 z" fill="#FFFFFE"/>
    <path d="M19.08,77.582 C19.163,76.6 19.238,75.696 19.318,74.738 L20.519,74.738 C20.957,77.22 20.674,77.822 19.08,77.582" fill="#FFFFFE"/>
    <path d="M21.033,74.721 L22.317,74.721 L22.317,77.618 L21.033,77.618 z" fill="#FFFFFE"/>
    <path d="M9.593,58.71 L9.593,59.988 L6.651,59.988 L6.651,58.54 C7.607,58.595 8.539,58.649 9.593,58.71" fill="#FFFFFE"/>
    <path d="M22.439,52.322 L22.439,49.552 L23.679,49.552 C24,52.169 23.84,52.55 22.439,52.322" fill="#FFFFFE"/>
    <path d="M38.179,63.729 L38.179,65.067 C35.377,65.251 35.245,65.191 35.327,63.729 z" fill="#FFFFFE"/>
    <path d="M10.123,60.579 L12.945,60.579 C12.972,60.997 12.996,61.367 13.019,61.726 C10.472,62.196 9.978,62.003 10.123,60.579" fill="#FFFFFE"/>
    <path d="M22.487,46.091 L23.769,46.091 L23.769,48.972 L22.487,48.972 z" fill="#FFFFFE"/>
    <path d="M24.304,46.089 L25.741,46.089 C25.682,47.043 25.626,47.967 25.565,48.955 L24.304,48.955 z" fill="#FFFFFE"/>
    <path d="M38.188,61.97 L38.188,63.343 C37.248,63.3 36.351,63.258 35.331,63.211 C35.309,62.8 35.29,62.429 35.265,61.97 z" fill="#FFFFFE"/>
    <path d="M34.848,63.127 L31.881,63.127 C31.841,62.754 31.806,62.424 31.759,61.985 L34.772,61.985 C34.792,62.296 34.817,62.66 34.848,63.127" fill="#FFFFFE"/>
    <path d="M25.386,49.528 C25.596,51.936 25.38,52.454 24.179,52.371 L24.179,49.528 z" fill="#FFFFFE"/>
    <path d="M23.539,55.883 C22.255,55.852 22.232,55.779 22.479,52.953 C22.787,52.916 23.115,52.876 23.539,52.825 z" fill="#FFFFFE"/>
    <path d="M22.352,67.877 L22.352,70.765 C21.998,70.792 21.665,70.817 21.341,70.843 C20.915,68.678 21.169,67.865 22.352,67.877" fill="#FFFFFE"/>
    <path d="M12.955,59.021 L12.955,60.217 C11.995,60.166 11.103,60.118 10.097,60.064 C10.072,59.663 10.05,59.302 10.018,58.798 C11.06,58.877 11.984,58.947 12.955,59.021" fill="#FFFFFE"/>
    <path d="M13.52,61.755 L13.52,60.618 C14.464,60.662 15.361,60.703 16.245,60.744 C16.536,61.997 16.156,62.134 13.52,61.755" fill="#FFFFFE"/>
    <path d="M31.829,63.644 L34.776,63.644 L34.776,64.734 C32.611,65.079 31.87,64.827 31.829,63.644" fill="#FFFFFE"/>
    <path d="M20.649,71.363 L20.649,74.207 L19.539,74.207 C19.223,71.852 19.431,71.299 20.649,71.363" fill="#FFFFFE"/>
    <path d="M19.748,70.766 C19.638,68.078 19.724,67.848 20.778,67.91 C21.113,70.145 20.895,70.788 19.748,70.766" fill="#FFFFFE"/>
    <path d="M31.349,64.55 C28.829,64.674 28.417,64.517 28.491,63.495 C31.056,63.211 31.397,63.328 31.349,64.55" fill="#FFFFFE"/>
    <path d="M21.195,74.259 L21.195,71.335 L22.335,71.335 L22.335,74.174 C21.968,74.201 21.631,74.227 21.195,74.259" fill="#FFFFFE"/>
    <path d="M31.334,63.142 C30.318,63.077 29.414,63.019 28.523,62.962 C28.355,61.769 28.817,61.621 31.334,62.012 z" fill="#FFFFFE"/>
    <path d="M22.511,58.918 C22.188,56.604 22.282,56.331 23.398,56.349 C23.812,58.417 23.591,59.059 22.511,58.918" fill="#FFFFFE"/>
    <path d="M24.079,55.82 L24.079,52.928 L25.129,52.928 C25.275,55.236 25.055,55.852 24.079,55.82" fill="#FFFFFE"/>
    <path d="M13.562,59.106 C16.246,59.125 16.395,59.185 16.327,60.227 L13.562,60.227 z" fill="#FFFFFE"/>
    <path d="M16.919,60.785 C17.656,60.785 18.332,60.742 18.997,60.809 C19.215,60.831 19.404,61.136 19.607,61.311 C19.412,61.447 19.232,61.66 19.019,61.703 C18.594,61.787 18.14,61.726 17.718,61.818 C16.854,62.006 16.752,61.578 16.919,60.785" fill="#FFFFFE"/>
    <path d="M24.947,56.219 C24.872,57.158 24.838,57.873 24.741,58.579 C24.718,58.752 24.514,58.963 24.343,59.03 C24.233,59.073 23.893,58.88 23.895,58.8 C23.916,58.009 23.964,57.215 24.076,56.432 C24.089,56.342 24.538,56.314 24.947,56.219" fill="#FFFFFE"/>
    <path d="M21.389,67.262 C21.389,66.586 21.346,65.906 21.414,65.236 C21.436,65.026 21.756,64.846 21.939,64.653 C22.089,64.838 22.343,65.011 22.368,65.213 C22.432,65.724 22.473,66.266 22.367,66.761 C22.303,67.059 21.945,67.294 21.719,67.558 C21.609,67.459 21.499,67.361 21.389,67.262" fill="#FFFFFE"/>
    <path d="M27.791,62.911 C27.122,62.911 26.45,62.945 25.785,62.89 C25.596,62.875 25.427,62.605 25.249,62.453 C25.434,62.266 25.598,61.954 25.807,61.921 C26.307,61.841 26.849,61.808 27.334,61.922 C27.63,61.991 27.853,62.368 28.109,62.607 C28.003,62.709 27.897,62.81 27.791,62.911" fill="#FFFFFE"/>
    <path d="M17.077,59.332 C17.78,59.404 18.486,59.454 19.182,59.568 C19.343,59.594 19.586,59.852 19.576,59.985 C19.564,60.14 19.316,60.396 19.166,60.4 C18.538,60.415 17.896,60.412 17.286,60.285 C17.075,60.241 16.943,59.818 16.774,59.568 C16.875,59.489 16.976,59.411 17.077,59.332" fill="#FFFFFE"/>
    <path d="M19.953,67.311 C20.152,66.405 19.588,65.302 20.75,64.531 C21.23,66.593 21.005,67.387 19.953,67.311" fill="#FFFFFE"/>
    <path d="M28.081,63.707 C27.834,63.919 27.602,64.287 27.338,64.311 C26.796,64.357 26.231,64.249 25.689,64.141 C25.523,64.107 25.399,63.866 25.256,63.72 C25.414,63.592 25.565,63.363 25.729,63.354 C26.437,63.313 27.148,63.337 27.859,63.337 C27.933,63.46 28.007,63.584 28.081,63.707" fill="#FFFFFE"/>
    <path d="M31.138,88.877 C33.329,91.513 35.313,93.899 37.352,96.352 C34.626,98.924 31.965,101.435 29.088,104.148 C29.784,98.967 30.438,94.094 31.138,88.877" fill="#FFFFFE"/>
    <path d="M37.597,104.093 C38.218,101.04 38.819,98.087 39.472,94.877 C42.144,98.018 44.666,100.981 47.315,104.093 z" fill="#FFFFFE"/>
    <path d="M16.844,104.227 C17.439,100.987 17.975,98.068 18.559,94.887 C19.76,96.256 20.819,97.463 21.933,98.733 C20.275,100.523 18.666,102.26 16.844,104.227" fill="#FFFFFE"/>
    <path d="M54.924,71.531 C54.525,71.53 54.125,71.531 53.726,71.53 C52.412,71.527 52.062,71.138 52.187,69.828 C52.356,68.058 53.656,66.835 55.238,66.955 C56.741,67.07 57.935,68.64 57.795,70.316 C57.727,71.119 57.485,71.699 56.48,71.545 C55.972,71.467 55.444,71.531 54.924,71.531" fill="#FFFFFE"/>
    <path d="M53.505,62.772 C53.877,62.025 54.073,61.416 54.455,60.962 C54.616,60.773 55.35,60.756 55.508,60.937 C55.901,61.384 56.112,61.991 56.521,62.772 z" fill="#FFFFFE"/>
    <path d="M91.446,11.314 C93.805,12.068 96.164,12.821 98.523,13.575 L98.453,13.837 L84.168,13.837 C84.142,13.75 84.116,13.661 84.091,13.573 C86.251,12.896 88.411,12.219 90.571,11.542 C90.459,11.908 90.203,12.306 90.273,12.632 C90.35,12.99 90.671,13.409 90.997,13.561 C91.254,13.681 91.778,13.538 92.004,13.323 C92.243,13.095 92.448,12.576 92.346,12.307 C92.199,11.918 91.76,11.639 91.446,11.314" fill="#FFFFFE"/>
    <path d="M91.446,11.314 C91.76,11.639 92.199,11.918 92.346,12.307 C92.448,12.576 92.243,13.095 92.004,13.323 C91.778,13.538 91.254,13.681 90.997,13.561 C90.671,13.409 90.35,12.99 90.273,12.632 C90.203,12.306 90.459,11.908 90.571,11.542 C90.863,11.466 91.155,11.39 91.446,11.314" fill="#141413"/>
  </g>
  <defs/>
</svg>
