<?xml version="1.0" encoding="UTF-8"?>
<!DOCTYPE svg PUBLIC "-//W3C//DTD SVG 1.1//EN" "http://www.w3.org/Graphics/SVG/1.1/DTD/svg11.dtd">
<svg version="1.1" xmlns="http://www.w3.org/2000/svg" xmlns:xlink="http://www.w3.org/1999/xlink" x="0px" y="0px" width="50.866" height="51.96" viewBox="0, 0, 50.866, 51.96">
  <g id="Layer 1">
    <path d="M30.836,46.587 C31.455,46.514 31.525,46.303 31.098,45.646 C30.993,46.022 30.92,46.285 30.836,46.587 M42.472,49.628 C42.367,49.621 42.261,49.613 42.156,49.605 C42.138,49.891 42.116,50.176 42.116,50.46 C42.116,50.473 42.321,50.486 42.43,50.498 C42.444,50.208 42.458,49.918 42.472,49.628 M32.499,50.523 C32.402,50.146 32.327,49.85 32.216,49.42 C31.776,50.166 31.854,50.472 32.499,50.523 M31.251,49.57 C30.753,50.164 30.821,50.432 31.381,50.446 C31.336,50.144 31.293,49.857 31.251,49.57 M30.968,47.649 C30.968,47.989 30.964,48.277 30.981,48.565 C30.982,48.574 31.186,48.572 31.296,48.576 C31.265,48.286 31.235,47.997 31.202,47.709 C31.202,47.702 31.17,47.7 30.968,47.649 M42.411,47.561 C42.3,47.562 42.189,47.563 42.079,47.565 C42.093,47.864 42.105,48.164 42.135,48.463 C42.136,48.471 42.399,48.466 42.399,48.462 C42.413,48.162 42.411,47.862 42.411,47.561 M41.473,49.659 C41.346,49.645 41.218,49.631 41.091,49.618 C41.073,49.928 41.052,50.238 41.053,50.548 C41.053,50.561 41.258,50.574 41.366,50.587 C41.402,50.278 41.437,49.968 41.473,49.659 M41.43,47.44 C41.33,47.441 41.23,47.443 41.131,47.444 C41.117,47.757 41.087,48.07 41.106,48.381 C41.108,48.423 41.357,48.449 41.617,48.513 C41.541,48.076 41.486,47.758 41.43,47.44 M31.806,48.5 C31.863,48.543 31.919,48.586 31.975,48.629 C32.1,48.547 32.328,48.47 32.331,48.384 C32.342,48.106 32.27,47.826 32.23,47.546 C32.147,47.547 32.063,47.549 31.979,47.55 C31.922,47.866 31.864,48.183 31.806,48.5 M39.745,45.985 C40.008,46.012 40.173,46.029 40.475,46.059 C40.379,45.661 40.305,45.348 40.23,45.035 C40.139,45.039 40.048,45.043 39.958,45.047 C39.891,45.343 39.824,45.64 39.745,45.985 M32.252,45.379 C32.162,45.377 32.071,45.375 31.981,45.374 C31.908,45.695 31.835,46.017 31.761,46.338 C31.813,46.374 31.864,46.411 31.915,46.447 C32.075,46.347 32.352,46.265 32.37,46.143 C32.406,45.899 32.3,45.635 32.252,45.379 M40.443,48.37 C40.351,47.987 40.277,47.68 40.203,47.374 C40.116,47.376 40.03,47.379 39.944,47.381 C39.88,47.694 39.816,48.006 39.741,48.37 z M39.714,50.736 C40.05,50.678 40.218,50.648 40.453,50.607 C40.363,50.232 40.294,49.94 40.225,49.649 C40.143,49.649 40.06,49.65 39.978,49.65 C39.902,49.962 39.826,50.273 39.714,50.736 M33.672,50.608 C33.584,50.23 33.51,49.908 33.436,49.586 C33.348,49.59 33.26,49.594 33.172,49.598 C33.112,49.918 33.051,50.238 32.982,50.608 z M32.931,46.127 C33.227,46.106 33.419,46.093 33.711,46.073 C33.616,45.675 33.541,45.359 33.465,45.043 C33.372,45.048 33.278,45.053 33.185,45.058 C33.11,45.377 33.034,45.696 32.931,46.127 M32.972,48.443 L33.683,48.443 C33.591,48.07 33.514,47.756 33.437,47.441 C33.349,47.447 33.262,47.452 33.175,47.458 C33.111,47.766 33.048,48.074 32.972,48.443 M39.295,48.391 C39.195,47.953 39.118,47.616 39.04,47.278 L38.726,47.293 C38.666,47.644 38.606,47.995 38.539,48.391 z M39.279,50.738 C39.186,50.323 39.112,49.994 39.038,49.664 L38.743,49.664 C38.676,50.006 38.61,50.348 38.535,50.738 z M34.149,48.439 L34.844,48.439 C34.745,48.032 35.01,47.572 34.331,47.282 C34.266,47.694 34.211,48.047 34.149,48.439 M34.882,50.707 C34.805,50.31 34.74,49.964 34.674,49.618 C34.568,49.619 34.463,49.621 34.357,49.622 C34.296,49.968 34.234,50.314 34.165,50.707 z M36.91,45.991 C37.269,45.967 37.452,45.955 37.759,45.935 C37.64,45.561 37.552,45.261 37.44,44.97 C37.43,44.943 37.207,44.948 37.197,44.978 C37.098,45.272 37.023,45.575 36.91,45.991 M34.92,45.978 C34.804,45.578 34.721,45.271 34.616,44.972 C34.608,44.949 34.381,44.956 34.369,44.989 C34.264,45.301 34.183,45.623 34.084,45.978 z M38.314,45.931 L39.166,45.931 C39.042,45.532 38.94,45.202 38.838,44.873 C38.745,44.882 38.652,44.891 38.559,44.899 C38.482,45.22 38.406,45.541 38.314,45.931 M37.932,48.364 C37.817,47.983 37.728,47.664 37.615,47.355 C37.606,47.332 37.339,47.353 37.327,47.394 C37.233,47.71 37.173,48.035 37.085,48.434 C37.415,48.407 37.601,48.392 37.932,48.364 M36.086,49.59 C35.966,49.594 35.847,49.598 35.726,49.602 C35.651,49.962 35.576,50.323 35.494,50.715 L36.325,50.715 C36.237,50.299 36.162,49.945 36.086,49.59 M36.081,44.806 C35.972,44.805 35.863,44.803 35.754,44.801 C35.668,45.171 35.581,45.541 35.487,45.945 L36.318,45.945 C36.231,45.528 36.156,45.167 36.081,44.806 M37.857,50.729 C37.735,50.33 37.647,50.01 37.529,49.701 C37.517,49.669 37.251,49.678 37.24,49.712 C37.139,50.028 37.068,50.354 36.975,50.729 z M36.244,48.412 C36.241,47.959 36.405,47.519 35.735,47.21 C35.659,47.651 35.595,48.013 35.526,48.412 z M39.732,42.455 C39.791,42.903 39.779,43.528 40.503,43.75 C40.567,43.769 40.614,43.898 40.638,43.985 C40.789,44.534 40.886,45.105 41.099,45.628 C41.183,45.834 41.55,46.093 41.738,46.058 C42.768,45.865 43.62,46.309 44.472,46.747 C44.617,46.821 44.722,47.095 44.738,47.285 C44.807,48.096 44.806,48.915 44.892,49.724 C44.944,50.216 44.74,50.434 44.31,50.486 C42.863,50.661 41.414,50.952 39.965,50.959 C36.908,50.973 33.851,50.849 30.795,50.748 C30.21,50.73 29.631,50.559 29.05,50.459 C28.726,50.404 28.595,50.239 28.619,49.885 C28.685,48.893 28.697,47.898 28.769,46.907 C28.784,46.703 28.921,46.451 29.082,46.326 C29.564,45.955 30.084,45.637 30.542,45.203 C29.975,45.521 29.407,45.839 28.798,46.18 C28.83,45.617 28.845,45.072 28.901,44.532 C28.915,44.396 29.031,44.231 29.148,44.15 C29.776,43.72 30.332,43.133 31.205,43.219 C31.376,43.236 31.614,43.122 31.737,42.989 C32.514,42.156 33.564,42.296 34.53,42.189 C35.26,42.109 36.006,42.185 36.74,42.127 C37.068,42.101 37.375,41.863 37.704,41.816 C38.431,41.714 39.157,41.708 39.732,42.455" fill="#141413"/>
    <path d="M9.202,11.847 C9.111,11.215 9.02,10.583 8.929,9.95 C8.854,9.962 8.779,9.973 8.705,9.984 C8.666,10.647 8.919,11.268 9.202,11.847 M6.883,5.031 C6.883,4.42 6.657,4.364 5.416,4.761 C5.9,4.85 6.385,4.939 6.883,5.031 M9.763,11.348 L9.763,10.027 C9.633,10.002 9.476,9.972 9.313,9.941 C9.274,11.052 9.329,11.232 9.763,11.348 M13.777,12.862 C13.957,12.285 14.129,11.733 14.308,11.159 C14.072,11.033 13.877,10.929 13.636,10.8 C13.565,11.123 13.513,11.361 13.455,11.623 L14.012,11.623 C13.623,11.923 13.075,12.034 13.262,12.692 C13.405,12.739 13.568,12.793 13.777,12.862 M12.948,12.372 C12.945,12.31 12.942,12.247 12.94,12.185 C11.833,12.394 10.949,11.963 10.18,11.179 L10.18,12.24 C11.01,12.344 11.787,12.45 12.567,12.529 C12.688,12.541 12.821,12.427 12.948,12.372 M7.666,3.234 C6.426,3.002 5.786,3.104 5.558,3.532 L6.373,3.532 C6.38,3.563 6.388,3.593 6.395,3.624 C6.182,3.736 5.969,3.848 5.77,3.952 C6.686,4.5 7.057,3.666 7.666,3.234 M8.374,11.484 C8.3,10.978 8.202,10.474 8.16,9.966 C8.118,9.453 8.162,8.934 8.11,8.423 C8.072,8.058 7.935,7.703 7.843,7.344 C7.416,8.303 7.703,10.321 8.374,11.484 M13.248,10.387 C12.11,10.241 11.079,10.11 9.86,9.954 C10.047,10.434 10.084,10.923 10.34,11.114 C11.016,11.618 11.837,11.801 12.688,11.726 C12.828,11.713 13.044,11.592 13.075,11.48 C13.171,11.126 13.195,10.752 13.248,10.387 M5.888,7.332 C5.836,7.294 5.785,7.255 5.733,7.217 C5.925,6.888 6.116,6.559 6.31,6.226 C5.625,6.2 5.091,6.022 4.525,5.596 C4.884,8.195 6.05,10.241 7.88,12.015 C7.601,10.453 7.338,8.983 7.055,7.404 C6.933,7.676 6.87,7.818 6.745,8.096 C6.689,7.769 6.661,7.605 6.617,7.346 C6.468,7.542 6.381,7.656 6.248,7.83 C6.229,7.489 6.215,7.227 6.201,6.968 C6.086,7.102 5.987,7.217 5.888,7.332 M6.565,14.731 C6.5,14.688 6.437,14.642 6.37,14.601 C6.159,14.477 5.947,14.355 5.736,14.232 C5.903,14.026 6.034,13.762 6.246,13.626 C6.721,13.321 7.238,13.079 7.785,12.787 C6.012,11.306 5.204,9.24 4.432,7.149 C4.21,6.55 3.927,5.974 3.66,5.357 L3.66,6.782 C3.62,6.783 3.58,6.785 3.54,6.787 C3.445,6.559 3.351,6.33 3.205,5.977 C3.111,6.322 3.052,6.542 2.959,6.882 C2.808,6.427 2.687,6.061 2.549,5.648 C2.452,5.874 2.368,6.069 2.285,6.263 C2.221,6.247 2.156,6.231 2.092,6.214 C2.225,5.713 2.358,5.212 2.505,4.66 C2.056,4.847 1.604,5.035 1,5.286 C1.412,4.67 1.749,4.166 2.16,3.551 L1.077,3.551 C1.065,3.492 1.053,3.433 1.041,3.373 C1.615,3.242 2.189,3.111 2.798,2.972 C2.843,2.294 2.218,2.507 1.895,2.33 C2.577,1.983 3.047,2.121 3.626,2.848 C3.932,2.625 4.241,2.401 4.671,2.089 C4.502,2.496 4.396,2.755 4.306,2.972 C4.949,2.972 5.543,3.072 6.085,2.944 C6.626,2.816 7.113,2.459 7.625,2.203 C7.574,2.105 7.548,1.966 7.468,1.919 C7.296,1.816 7.095,1.76 6.907,1.686 L6.966,1.512 C7.486,1.644 8.006,1.776 8.532,1.91 C8.834,1.402 8.203,1.324 8.104,1 C8.83,1.098 9.092,1.354 9.24,2.123 C9.58,2.07 9.924,2.017 10.432,1.937 C10.108,2.211 9.934,2.358 9.747,2.517 C10.313,2.76 10.806,2.971 11.299,3.183 C11.287,3.236 11.274,3.288 11.262,3.341 L10.623,3.341 C10.617,3.372 10.611,3.403 10.604,3.435 C10.825,3.56 11.046,3.686 11.267,3.811 C11.253,3.847 11.24,3.884 11.225,3.92 C11.002,3.899 10.78,3.879 10.556,3.858 C10.917,4.191 11.268,4.515 11.619,4.839 C11.597,4.861 11.576,4.883 11.553,4.905 C11.074,4.686 10.594,4.466 9.981,4.186 C10.143,4.591 10.245,4.846 10.404,5.245 C10.072,5.056 9.878,4.945 9.665,4.824 C9.578,5.134 9.493,5.439 9.401,5.77 C9.242,5.782 9.06,5.796 8.879,5.81 C8.872,5.84 8.864,5.869 8.858,5.899 C9.051,5.969 9.244,6.039 9.576,6.158 C9.272,6.208 9.11,6.234 8.927,6.264 C9.259,6.488 9.577,6.701 10.015,6.995 C9.424,6.863 8.996,6.769 8.48,6.654 C8.656,6.924 8.771,7.101 8.892,7.288 C8.421,7.399 8.316,8.288 8.624,9.335 C9.463,8.91 10.26,8.326 11.147,8.108 C12.016,7.895 13.018,7.883 13.841,8.429 C14.635,8.955 15.369,9.573 16.129,10.151 C16.101,10.209 16.073,10.268 16.046,10.326 C15.882,10.316 15.705,10.261 15.558,10.305 C15.319,10.376 14.933,10.476 14.9,10.627 C14.724,11.441 14.121,12.079 14.021,12.884 C14.654,13.278 15.277,13.668 15.901,14.058 C15.89,14.123 15.878,14.189 15.867,14.255 C15.556,14.408 15.246,14.562 14.936,14.715 C14.702,14.722 14.468,14.731 14.235,14.736 C12.235,14.779 10.237,14.822 8.238,14.864 C7.68,14.82 7.123,14.776 6.565,14.731" fill="#141413"/>
    <path d="M43.435,22.3 C43.608,22.466 43.839,22.687 44.054,22.893 C43.954,23.155 43.731,23.485 43.721,23.823 C43.707,24.287 43.61,24.8 44.084,25.193 C44.279,25.354 44.297,25.731 44.395,26.01 C44.457,26.184 44.519,26.358 44.636,26.688 C44.829,26.411 44.94,26.251 45.068,26.067 C45.437,26.222 45.778,26.367 46.1,26.503 C46.322,27.492 45.38,27.832 45.072,28.51 C45.024,28.617 44.906,28.717 44.908,28.818 C44.932,30.2 44.966,31.582 45.011,32.964 C45.031,33.592 45.049,34.191 45.448,34.772 C45.716,35.163 45.694,35.755 45.811,36.298 C46.082,36.274 46.329,36.251 46.604,36.227 L46.604,38.623 L40.023,38.623 C40.023,37.83 40.042,37.03 40.018,36.231 C39.987,35.247 40.546,34.47 40.853,33.602 C41.168,32.715 41.426,31.799 41.608,30.876 C41.709,30.367 41.602,29.816 41.597,29.283 C41.594,29.045 41.588,28.801 41.629,28.568 C41.674,28.307 41.87,28.056 41.438,27.898 C41.358,27.869 41.353,27.385 41.448,27.172 C41.632,26.758 41.7,26.398 41.398,26.021 C41.343,25.952 41.333,25.836 41.325,25.741 C41.286,25.258 41.222,24.774 41.232,24.291 C41.239,23.937 41.341,23.583 41.415,23.232 C41.442,23.103 41.553,22.984 41.556,22.86 C41.573,21.972 41.582,21.085 41.569,20.197 C41.566,20.008 41.427,19.822 41.423,19.632 C41.418,19.446 41.477,19.244 41.557,19.072 C41.7,18.761 41.88,18.468 42.058,18.14 C42.35,18.514 42.083,19.021 42.505,19.274 C42.538,19.294 42.532,19.44 42.498,19.501 C42,20.396 42.159,21.357 42.227,22.304 C42.237,22.453 42.364,22.593 42.437,22.737 C42.54,22.655 42.633,22.543 42.75,22.497 C42.97,22.412 43.204,22.364 43.435,22.3" fill="#141413"/>
    <path d="M26.124,7.201 C25.228,7.095 25.09,7.21 25.151,7.983 L26.165,7.983 C26.149,7.689 26.136,7.44 26.124,7.201 M25.769,12.396 L25.769,11.237 C25.521,11.248 25.315,11.258 25.108,11.267 L25.108,12.396 z M27.239,7.919 C27.737,7.888 28.175,7.862 28.613,7.835 C28.686,7.398 28.703,7.039 28.234,6.946 C27.626,6.825 27.408,7.038 27.239,7.919 M23.096,12.405 L24.238,12.405 L24.238,11.375 L23.096,11.375 z M29.634,12.563 L30.366,12.563 L30.366,11.011 L29.634,11.011 z M29.634,11.011 M27.694,12.582 L28.516,12.582 L28.516,11.034 L27.694,11.034 z M27.698,13.193 C28.019,13.993 27.455,14.865 28.226,15.551 C28.566,15.854 28.499,15.931 28.775,15.452 C28.136,15.265 28.59,14.791 28.534,14.448 C28.468,14.048 28.519,13.629 28.519,13.193 z M24.284,13.051 L23.041,13.051 C23.177,13.671 23.336,14.224 23.401,14.788 C23.428,15.012 23.309,15.345 23.14,15.476 C22.914,15.652 22.745,15.53 22.542,15.218 C22.166,14.639 22.712,14.15 22.53,13.63 C22.452,13.41 22.37,13.186 22.344,12.957 C22.326,12.792 22.374,12.61 22.433,12.45 C22.583,12.041 22.785,11.651 22.295,11.301 C22.196,11.229 22.148,10.902 22.222,10.802 C22.581,10.32 22.604,10.245 22.218,9.622 L23.235,9.622 C23.156,9.979 23.084,10.306 22.997,10.699 L24.352,10.699 C24.398,10.02 24.447,9.321 24.49,8.7 C23.995,8.56 23.584,8.444 23.173,8.327 C23.187,8.254 23.201,8.18 23.214,8.107 L24.41,8.107 C24.561,7.341 24.471,7.267 23.784,7.244 C23.52,7.236 23.26,7.036 23.005,6.91 C22.665,6.743 22.332,6.562 21.887,6.331 C22.053,6.237 22.217,6.144 22.377,6.053 C22.262,5.891 22.196,5.797 22.126,5.698 C25.685,6.153 29.115,5.614 32.45,4.503 C32.492,4.87 32.536,5.262 32.588,5.721 C31.794,6.051 31.072,6.747 30.019,6.757 C29.367,6.764 29.294,6.969 29.408,7.751 C29.947,7.703 30.491,7.655 31.084,7.603 C30.846,8.687 29.902,8.006 29.34,8.48 C29.378,9.018 29.423,9.665 29.471,10.363 L30.372,10.363 C30.264,10.167 30.179,10.013 30.04,9.761 L30.92,9.761 C30.987,11.662 31.05,13.48 31.115,15.343 C30.707,15.49 30.597,15.401 30.549,14.816 C30.506,14.287 30.417,13.761 30.342,13.186 L29.659,13.186 C29.548,14.239 30.051,15.213 29.882,16.268 C29.881,16.27 29.851,16.325 29.83,16.322 C29.053,16.208 28.294,16.008 27.487,16.045 C27.218,16.058 26.968,15.763 26.964,15.237 C26.96,14.52 27.309,13.701 26.714,13.031 C26.663,12.973 26.649,12.802 26.694,12.748 C27.21,12.127 27.106,11.507 26.739,10.866 C26.687,10.774 26.671,10.56 26.723,10.524 C27.22,10.176 26.767,9.954 26.511,9.563 L27.884,9.563 C27.784,9.876 27.714,10.1 27.643,10.324 C27.923,10.369 28.203,10.414 28.572,10.475 L28.572,8.379 C27.476,8.429 26.327,8.482 25.13,8.536 L25.13,10.678 L25.818,10.678 C25.733,10.427 25.659,10.21 25.556,9.907 L26.337,9.907 C26.54,11.654 26.06,13.373 26.78,15.04 L25.76,15.04 L25.76,13.01 L25.069,13.01 C25.251,13.632 24.914,14.294 25.382,14.862 C25.431,14.922 25.44,15.064 25.404,15.137 C25.173,15.611 25.372,15.917 25.841,16.163 C25.052,16.407 24.464,16.108 23.985,15.742 C24.139,15.54 24.307,15.319 24.509,15.054 C24.222,14.935 24.027,14.855 23.89,14.798 C24.39,14.306 24.14,13.661 24.284,13.051" fill="#141413"/>
    <path d="M12.497,30.37 C12.46,30.309 12.424,30.247 12.387,30.186 C12.036,30.186 11.685,30.174 11.335,30.194 C11.254,30.199 11.18,30.313 11.101,30.376 C11.172,30.449 11.233,30.569 11.315,30.586 C11.583,30.639 11.862,30.693 12.13,30.67 C12.26,30.658 12.375,30.475 12.497,30.37 M8.482,32.163 C9.001,32.201 9.113,31.806 8.876,30.78 C8.301,31.164 8.58,31.712 8.482,32.163 M7.061,28.193 C7.011,28.232 6.961,28.271 6.911,28.31 C6.994,28.435 7.06,28.645 7.164,28.667 C7.465,28.73 7.783,28.732 8.093,28.724 C8.167,28.722 8.29,28.595 8.296,28.518 C8.3,28.451 8.18,28.323 8.101,28.31 C7.757,28.253 7.408,28.229 7.061,28.193 M12.354,29.974 C12.406,29.924 12.458,29.873 12.511,29.822 C12.384,29.703 12.274,29.516 12.128,29.482 C11.888,29.425 11.621,29.441 11.374,29.481 C11.27,29.497 11.189,29.653 11.098,29.746 C11.186,29.821 11.269,29.956 11.363,29.964 C11.691,29.991 12.023,29.974 12.354,29.974 M9.191,32.139 C9.246,32.188 9.3,32.237 9.354,32.287 C9.465,32.155 9.642,32.038 9.674,31.89 C9.727,31.644 9.706,31.374 9.675,31.12 C9.662,31.019 9.537,30.933 9.463,30.84 C9.372,30.937 9.214,31.026 9.204,31.131 C9.17,31.464 9.191,31.803 9.191,32.139 M10.949,26.644 C10.747,26.691 10.525,26.705 10.519,26.75 C10.463,27.14 10.44,27.535 10.429,27.929 C10.428,27.968 10.596,28.064 10.65,28.042 C10.735,28.01 10.836,27.905 10.847,27.819 C10.895,27.467 10.912,27.111 10.949,26.644 M6.983,28.916 C6.901,29.31 6.951,29.523 7.378,29.43 C7.586,29.384 7.81,29.414 8.02,29.373 C8.126,29.351 8.215,29.245 8.31,29.177 C8.211,29.09 8.117,28.939 8.01,28.928 C7.681,28.894 7.347,28.916 6.983,28.916 M5.325,28.08 L5.325,28.639 L6.691,28.639 C6.724,28.12 6.651,28.09 5.325,28.08 M10.52,26.445 C11.002,26.461 11.11,26.155 11.039,25.007 L10.52,25.007 z M9.745,27.987 C10.279,28.057 10.388,27.737 10.183,26.708 C9.632,26.699 9.586,26.835 9.745,27.987 M14.104,30.089 L14.104,29.527 C12.861,29.332 12.632,29.406 12.715,30 C13.156,30.028 13.602,30.056 14.104,30.089 M9.095,35.621 C9.31,35.605 9.477,35.592 9.658,35.579 L9.658,34.166 L9.095,34.166 z M14.111,30.79 C14.135,30.182 13.967,30.123 12.7,30.265 C12.663,30.773 12.867,30.851 14.111,30.79 M8.381,33.883 C8.947,33.894 9.055,33.573 8.889,32.461 C8.369,32.431 8.326,32.545 8.381,33.883 M8.826,34.179 C8.224,34.148 8.121,34.423 8.277,35.595 L8.826,35.595 z M14.349,30.339 C14.368,30.927 14.734,31.052 15.804,30.881 L15.804,30.339 z M5.303,29.399 C6.606,29.588 6.793,29.519 6.65,28.896 C6.213,28.875 5.77,28.855 5.303,28.833 z M5.025,28.038 C4.545,28.001 4.089,27.967 3.574,27.928 C3.589,28.178 3.601,28.357 3.613,28.557 C4.11,28.584 4.55,28.608 5.025,28.634 z M9.667,32.445 C9.082,32.439 8.957,32.843 9.167,33.921 C9.328,33.908 9.492,33.895 9.667,33.882 z M10.253,26.477 L10.253,24.955 C10.044,24.981 9.882,25 9.73,25.019 C9.607,26.425 9.619,26.462 10.253,26.477 M11.166,23.315 L10.569,23.315 L10.569,24.729 C11.163,24.771 11.269,24.512 11.166,23.315 M15.84,30.081 C15.825,29.849 15.812,29.668 15.802,29.513 L14.313,29.513 C14.337,29.731 14.354,29.896 14.374,30.081 z M17.49,29.506 L16.046,29.506 C16.058,29.734 16.068,29.919 16.079,30.123 C16.582,30.147 17.025,30.168 17.49,30.189 z M10.631,21.604 L10.631,23.03 L11.254,23.03 C11.284,22.538 11.312,22.078 11.341,21.604 z M9.733,23.038 L10.366,23.038 L10.366,21.604 L9.733,21.604 z M9.733,21.604 M3.626,28.813 C3.554,29.522 3.798,29.618 5.056,29.384 C5.045,29.205 5.033,29.021 5.02,28.813 z M17.485,30.381 L16.077,30.381 C16.036,31.108 16.101,31.139 17.485,31.046 z M9.71,24.705 C10.402,24.818 10.481,24.628 10.322,23.327 L9.71,23.327 z M3.364,27.883 C2.843,27.853 2.382,27.826 1.911,27.799 L1.911,28.519 L3.364,28.519 z M9.015,37.292 L9.65,37.292 L9.65,35.851 L9.015,35.851 z M9.015,35.851 M8.051,37.274 C8.838,37.393 8.977,37.094 8.761,35.859 L8.168,35.859 C8.128,36.335 8.091,36.785 8.051,37.274 M3.392,28.771 L1.86,28.771 C1.872,29.014 1.882,29.205 1.895,29.458 C2.209,29.458 2.481,29.462 2.753,29.457 C2.947,29.454 3.141,29.441 3.358,29.431 C3.369,29.215 3.378,29.04 3.392,28.771 M7.633,37.612 L10.235,37.612 L10.235,35.6 C10.589,36.411 10.869,37.054 11.161,37.724 C11.044,37.739 10.922,37.729 10.824,37.773 C10.737,37.811 10.677,37.909 10.604,37.981 C10.681,38.049 10.752,38.165 10.835,38.174 C11.089,38.202 11.35,38.174 11.603,38.204 C11.683,38.213 11.807,38.339 11.806,38.409 C11.805,38.49 11.701,38.597 11.616,38.641 C11.536,38.683 11.423,38.661 11.324,38.661 C9.17,38.661 7.017,38.666 4.863,38.651 C4.692,38.649 4.523,38.504 4.352,38.424 C4.519,38.346 4.684,38.266 4.852,38.193 C4.885,38.178 4.932,38.198 4.969,38.188 C5.189,38.123 5.407,38.055 5.625,37.988 C5.431,37.875 5.236,37.762 5.007,37.629 C5.976,35.924 6.274,33.978 6.343,32.019 C6.152,31.848 5.967,31.727 5.851,31.558 C5.804,31.489 5.873,31.287 5.95,31.197 C6.043,31.088 6.2,31.034 6.329,30.956 C6.152,30.869 5.975,30.781 5.715,30.653 C5.811,30.425 5.918,30.169 6.045,29.867 L1.757,29.867 L1.757,27.58 C2.53,27.636 3.289,27.687 4.048,27.749 C5.307,27.851 6.565,27.993 7.826,28.05 C8.401,28.077 8.68,28.231 8.569,28.846 C8.542,28.998 8.565,29.16 8.565,29.372 C8.802,29.407 9.005,29.438 9.283,29.481 L9.283,21.424 L11.572,21.424 C11.386,23.717 11.201,25.986 11.013,28.29 L9.74,28.29 L9.74,29.018 L17.676,29.018 L17.676,31.33 C15.398,31.144 13.163,30.96 10.862,30.773 L10.862,29.497 L10.157,29.497 L10.157,37.452 L7.845,37.452 C8.024,35.192 8.205,32.93 8.389,30.607 L9.515,30.607 C9.516,30.572 9.516,30.538 9.517,30.504 L8.295,30.504 C8.076,32.849 7.858,35.194 7.633,37.612" fill="#141413"/>
    <path d="M6.946,50.533 C7.846,49.554 8.641,48.69 9.46,47.799 C8.909,47.167 8.386,46.566 7.793,45.885 C7.505,47.468 7.24,48.921 6.946,50.533 M17.198,50.466 L21.998,50.466 C20.69,48.918 19.444,47.443 18.124,45.88 C17.801,47.478 17.505,48.947 17.198,50.466 M14.007,42.894 C13.661,45.49 13.338,47.915 12.995,50.493 C14.416,49.143 15.73,47.894 17.077,46.614 C16.069,45.394 15.089,44.206 14.007,42.894 M13.993,42.454 C15.122,43.769 16.217,45.046 17.347,46.363 C17.615,46.064 17.862,45.788 18.166,45.447 C19.671,47.201 21.156,48.933 22.705,50.74 L3.292,50.74 C4.816,48.946 6.277,47.225 7.795,45.437 C8.414,46.147 9.005,46.826 9.642,47.557 C11.09,45.857 12.525,44.175 13.993,42.454" fill="#141413"/>
    <path d="M25.056,29.905 L26.546,29.905 C26.344,29.516 26.24,29.214 26.046,28.992 C25.967,28.902 25.605,28.91 25.525,29.004 C25.337,29.23 25.24,29.533 25.056,29.905 M25.757,34.263 C26.013,34.263 26.275,34.231 26.526,34.27 C27.022,34.347 27.142,34.058 27.175,33.659 C27.244,32.825 26.655,32.043 25.912,31.986 C25.131,31.926 24.488,32.535 24.405,33.416 C24.343,34.068 24.516,34.261 25.165,34.263 C25.362,34.263 25.56,34.263 25.757,34.263 M30.888,38.628 L28.573,38.628 C28.303,36.321 27.393,35.272 25.724,35.316 C24.087,35.358 23.162,36.481 23.04,38.616 L20.697,38.616 C20.999,38.122 21.31,37.673 21.56,37.193 C22.018,36.313 22.738,35.554 22.741,34.455 C22.742,34.23 23.156,34.036 23.254,33.779 C23.556,32.983 23.864,32.18 24.047,31.352 C24.376,29.862 24.67,28.36 24.876,26.848 C25.084,25.319 25.168,23.773 25.309,22.205 C24.805,22.08 24.588,21.947 24.921,21.421 C25.097,21.142 25.028,20.721 25.477,20.588 C25.543,20.569 25.547,20.301 25.561,20.146 C25.613,19.583 25.657,19.02 25.704,18.456 L25.891,18.447 C25.937,18.997 25.953,19.551 26.042,20.094 C26.079,20.321 26.293,20.513 26.385,20.739 C26.55,21.141 26.693,21.554 26.811,21.973 C26.819,22.001 26.538,22.111 26.331,22.212 C26.388,23.156 26.423,24.127 26.512,25.092 C26.6,26.059 26.718,27.024 26.867,27.983 C27.013,28.926 27.173,29.871 27.403,30.795 C27.637,31.736 27.843,32.718 28.288,33.561 C28.721,34.382 28.913,35.291 29.384,36.082 C29.878,36.911 30.366,37.743 30.888,38.628" fill="#141413"/>
    <path d="M43.799,4.299 C43.656,4.337 43.511,4.375 43.367,4.413 C42.3,4.749 41.233,5.086 40.166,5.423 C40.178,5.467 40.191,5.511 40.204,5.555 L47.261,5.555 L47.295,5.424 C46.13,5.049 44.965,4.674 43.799,4.299 M43.726,6.085 C42.066,6.086 40.407,6.091 38.748,6.077 C38.584,6.076 38.422,5.955 38.259,5.889 C38.389,5.753 38.493,5.551 38.651,5.49 C40.236,4.886 41.827,4.297 43.424,3.726 C43.624,3.655 43.892,3.654 44.092,3.726 C45.689,4.296 47.28,4.884 48.864,5.489 C49.021,5.549 49.124,5.754 49.252,5.891 C49.089,5.956 48.926,6.075 48.763,6.076 C47.083,6.09 45.405,6.085 43.726,6.085" fill="#141413"/>
    <path d="M47.535,15.579 C47.128,15.544 46.757,15.512 46.43,15.484 C46.815,15.217 47.175,14.967 47.535,14.718 C47.508,14.651 47.481,14.584 47.454,14.518 C46.552,14.623 45.65,14.728 44.598,14.85 C44.897,15.046 45.096,15.176 45.294,15.307 C45.261,15.328 45.229,15.349 45.196,15.37 C45.303,15.577 45.41,15.784 45.548,16.049 L43.037,16.049 C43.032,15.991 43.028,15.933 43.024,15.875 C43.549,15.841 44.072,15.807 44.596,15.774 C44.6,15.712 44.603,15.65 44.606,15.587 C44.341,15.52 44.077,15.452 43.74,15.366 C43.88,15.302 43.978,15.275 44.053,15.217 C44.132,15.157 44.187,15.068 44.253,14.991 C44.164,14.936 44.08,14.862 43.984,14.829 C43.708,14.732 43.43,14.593 43.147,14.58 C42.802,14.564 42.451,14.66 42,14.722 C42.358,15.008 42.591,15.194 42.878,15.424 C42.569,15.518 42.349,15.585 42.051,15.676 C42.239,15.827 42.378,15.938 42.59,16.108 C41.45,16.302 40.387,16.419 39.441,15.931 C40.947,15.775 40.947,15.775 41.681,15.172 C41.507,15.109 41.352,15.052 41.192,14.993 C41.249,14.91 41.301,14.834 41.405,14.683 C41.052,14.639 40.743,14.546 40.448,14.583 C40.197,14.614 39.964,14.794 39.718,14.911 C39.904,15.155 40.038,15.333 40.241,15.6 L38.332,15.6 C38.601,15.531 38.856,15.466 39.137,15.394 C38.863,15.067 38.619,14.776 38.289,14.381 L49.667,14.381 C49.674,14.425 49.68,14.469 49.687,14.512 C49.179,14.549 48.671,14.585 47.975,14.636 C48.174,14.956 48.327,15.202 48.496,15.473 C48.378,15.515 48.188,15.582 47.955,15.666 C48.016,15.8 48.067,15.913 48.176,16.153 C47.272,16.231 46.415,16.305 45.558,16.38 C45.551,16.302 45.544,16.225 45.537,16.148 C45.907,16.129 46.281,16.073 46.648,16.101 C47.059,16.133 47.372,16.063 47.535,15.579" fill="#141413"/>
    <path d="M49.866,13.443 L49.866,14.032 L37.688,14.032 C37.676,13.836 37.665,13.665 37.651,13.443 z" fill="#141413"/>
    <path d="M6.565,14.731 C7.122,14.776 7.68,14.82 8.237,14.864 C8.474,14.924 8.713,15.043 8.947,15.035 C10.949,14.963 12.951,14.869 14.952,14.782 C14.908,15.203 14.539,15.228 14.267,15.406 C13.848,15.682 13.417,15.868 12.947,16.038 C12.549,16.182 12.152,16.465 11.762,16.386 C11.621,16.358 11.513,16.173 11.345,16.019 C11.413,15.956 11.499,15.877 11.596,15.788 C11.473,15.757 11.35,15.725 11.227,15.694 C11.225,15.658 11.224,15.621 11.223,15.584 L12.117,15.509 C12.116,15.49 12.114,15.471 12.113,15.453 L9.974,15.453 C10.1,15.587 10.161,15.652 10.284,15.784 L8.935,15.784 C8.985,15.931 9.011,16.008 9.018,16.027 C8.326,16.136 7.645,16.244 6.963,16.351 C6.964,16.383 6.964,16.415 6.965,16.447 C7.161,16.471 7.357,16.495 7.552,16.519 C7.554,16.558 7.556,16.597 7.557,16.637 C6.614,16.713 5.671,16.789 4.728,16.866 C4.719,16.815 4.711,16.764 4.702,16.713 C5.095,16.642 5.488,16.571 6.044,16.47 C5.783,16.387 5.682,16.354 5.54,16.308 C5.608,16.271 5.649,16.236 5.694,16.227 C6.416,16.078 7.139,15.932 7.86,15.665 C7.401,15.594 6.943,15.523 6.458,15.448 C6.779,15.43 7.077,15.413 7.375,15.396 C7.384,15.332 7.392,15.267 7.4,15.203 C6.948,15.132 6.496,15.06 6.051,14.989 C6.203,14.913 6.384,14.823 6.565,14.731" fill="#141413"/>
    <path d="M45.857,11.729 L44.406,11.729 C44.488,9.923 44.569,8.15 44.651,6.343 L45.617,6.343 C45.697,8.14 45.776,9.912 45.857,11.729" fill="#141413"/>
    <path d="M41.891,6.333 L42.859,6.333 C42.941,8.12 43.024,9.908 43.108,11.729 L41.662,11.729 C41.738,9.943 41.813,8.17 41.891,6.333" fill="#141413"/>
    <path d="M39.107,6.339 L40.091,6.339 C40.163,8.128 40.234,9.904 40.306,11.722 L38.879,11.722 C38.955,9.924 39.031,8.147 39.107,6.339" fill="#141413"/>
    <path d="M48.409,6.352 C48.485,8.14 48.56,9.898 48.637,11.708 L47.258,11.708 C47.258,11.215 47.245,10.726 47.261,10.238 C47.293,9.207 47.347,8.176 47.381,7.145 C47.411,6.245 47.406,6.245 48.409,6.352" fill="#141413"/>
    <path d="M38.31,13.155 C38.13,12.703 38.331,12.635 38.671,12.635 C42.063,12.641 45.454,12.635 48.844,12.648 C49.009,12.649 49.173,12.803 49.338,12.886 C49.163,12.975 48.987,13.142 48.81,13.143 C46.306,13.16 43.803,13.155 41.299,13.155 z" fill="#141413"/>
    <path d="M48.607,12.403 L38.984,12.403 C38.948,12.353 38.914,12.303 38.879,12.254 C39.007,12.151 39.136,11.96 39.266,11.96 C42.283,11.942 45.301,11.942 48.319,11.959 C48.45,11.96 48.579,12.15 48.709,12.253 C48.675,12.303 48.641,12.352 48.607,12.403" fill="#141413"/>
    <path d="M14.952,14.782 C12.951,14.869 10.949,14.963 8.947,15.035 C8.713,15.043 8.474,14.924 8.238,14.864 C10.237,14.822 12.236,14.779 14.235,14.736 C14.468,14.731 14.702,14.722 14.936,14.715 C14.952,14.735 14.957,14.757 14.952,14.782" fill="#FFFFFE"/>
    <path d="M36.244,48.412 L35.526,48.412 C35.596,48.013 35.658,47.651 35.735,47.21 C36.405,47.519 36.241,47.959 36.244,48.412" fill="#FFFFFE"/>
    <path d="M37.857,50.729 L36.975,50.729 C37.067,50.354 37.139,50.028 37.24,49.712 C37.251,49.678 37.517,49.669 37.529,49.701 C37.647,50.01 37.735,50.33 37.857,50.729" fill="#FFFFFE"/>
    <path d="M36.081,44.806 C36.156,45.167 36.231,45.528 36.318,45.945 L35.487,45.945 C35.581,45.54 35.668,45.171 35.755,44.801 C35.863,44.803 35.972,44.805 36.081,44.806" fill="#FFFFFE"/>
    <path d="M36.086,49.59 C36.161,49.945 36.237,50.299 36.325,50.715 L35.494,50.715 C35.576,50.323 35.651,49.962 35.726,49.602 C35.847,49.598 35.966,49.594 36.086,49.59" fill="#FFFFFE"/>
    <path d="M37.932,48.365 C37.601,48.392 37.415,48.407 37.085,48.434 C37.173,48.035 37.233,47.71 37.326,47.394 C37.339,47.353 37.607,47.333 37.614,47.355 C37.729,47.664 37.818,47.982 37.932,48.365" fill="#FFFFFE"/>
    <path d="M38.314,45.93 C38.406,45.541 38.483,45.22 38.559,44.899 C38.653,44.89 38.745,44.882 38.838,44.873 C38.941,45.202 39.042,45.531 39.166,45.93 z" fill="#FFFFFE"/>
    <path d="M34.92,45.979 L34.084,45.979 C34.183,45.622 34.264,45.301 34.37,44.989 C34.38,44.956 34.608,44.949 34.617,44.972 C34.721,45.271 34.804,45.578 34.92,45.979" fill="#FFFFFE"/>
    <path d="M36.91,45.991 C37.023,45.575 37.098,45.273 37.197,44.978 C37.207,44.948 37.43,44.943 37.44,44.97 C37.552,45.261 37.64,45.561 37.759,45.934 C37.452,45.955 37.27,45.967 36.91,45.991" fill="#FFFFFE"/>
    <path d="M34.882,50.707 L34.165,50.707 C34.234,50.314 34.295,49.968 34.357,49.621 C34.462,49.62 34.568,49.619 34.674,49.618 C34.74,49.964 34.806,50.31 34.882,50.707" fill="#FFFFFE"/>
    <path d="M34.149,48.439 C34.211,48.047 34.266,47.694 34.331,47.282 C35.01,47.572 34.745,48.032 34.844,48.439 z" fill="#FFFFFE"/>
    <path d="M39.279,50.738 L38.535,50.738 C38.61,50.348 38.676,50.006 38.743,49.664 L39.039,49.664 C39.112,49.993 39.186,50.323 39.279,50.738" fill="#FFFFFE"/>
    <path d="M39.295,48.391 L38.539,48.391 C38.606,47.995 38.666,47.644 38.726,47.293 L39.04,47.278 C39.118,47.615 39.195,47.953 39.295,48.391" fill="#FFFFFE"/>
    <path d="M32.972,48.442 C33.047,48.075 33.111,47.766 33.175,47.457 C33.262,47.452 33.349,47.447 33.436,47.441 C33.514,47.756 33.591,48.071 33.683,48.442 z" fill="#FFFFFE"/>
    <path d="M32.931,46.127 C33.034,45.696 33.109,45.377 33.185,45.058 C33.278,45.053 33.372,45.048 33.465,45.043 C33.54,45.359 33.616,45.675 33.711,46.074 C33.419,46.093 33.227,46.106 32.931,46.127" fill="#FFFFFE"/>
    <path d="M33.672,50.608 L32.982,50.608 C33.051,50.238 33.112,49.918 33.171,49.598 C33.26,49.594 33.348,49.59 33.436,49.586 C33.51,49.908 33.584,50.23 33.672,50.608" fill="#FFFFFE"/>
    <path d="M39.714,50.736 C39.826,50.273 39.902,49.962 39.977,49.65 C40.06,49.65 40.142,49.649 40.225,49.649 C40.294,49.94 40.363,50.232 40.453,50.607 C40.218,50.648 40.051,50.678 39.714,50.736" fill="#FFFFFE"/>
    <path d="M40.444,48.37 L39.741,48.37 C39.816,48.006 39.879,47.694 39.943,47.381 C40.03,47.379 40.117,47.376 40.203,47.374 C40.277,47.68 40.351,47.987 40.444,48.37" fill="#FFFFFE"/>
    <path d="M32.252,45.379 C32.3,45.635 32.406,45.899 32.37,46.143 C32.352,46.264 32.075,46.347 31.915,46.447 C31.864,46.41 31.812,46.374 31.762,46.338 C31.835,46.016 31.908,45.695 31.981,45.373 C32.071,45.375 32.162,45.377 32.252,45.379" fill="#FFFFFE"/>
    <path d="M39.746,45.985 C39.824,45.64 39.891,45.343 39.958,45.047 C40.048,45.043 40.139,45.039 40.23,45.035 C40.305,45.348 40.379,45.661 40.475,46.059 C40.173,46.029 40.008,46.012 39.746,45.985" fill="#FFFFFE"/>
    <path d="M31.806,48.5 C31.864,48.183 31.922,47.867 31.98,47.55 C32.063,47.549 32.147,47.547 32.23,47.546 C32.27,47.826 32.342,48.106 32.331,48.384 C32.328,48.47 32.1,48.547 31.975,48.628 C31.919,48.586 31.863,48.543 31.806,48.5" fill="#FFFFFE"/>
    <path d="M41.43,47.44 C41.485,47.758 41.541,48.076 41.617,48.513 C41.357,48.448 41.109,48.423 41.106,48.381 C41.087,48.071 41.116,47.757 41.131,47.444 C41.231,47.443 41.33,47.441 41.43,47.44" fill="#FFFFFE"/>
    <path d="M41.473,49.659 C41.438,49.968 41.402,50.278 41.366,50.587 C41.257,50.574 41.053,50.561 41.053,50.548 C41.052,50.238 41.073,49.928 41.091,49.618 C41.218,49.631 41.346,49.645 41.473,49.659" fill="#FFFFFE"/>
    <path d="M42.411,47.561 C42.411,47.862 42.412,48.162 42.399,48.462 C42.399,48.466 42.136,48.471 42.135,48.463 C42.106,48.164 42.093,47.864 42.078,47.565 C42.19,47.563 42.3,47.562 42.411,47.561" fill="#FFFFFE"/>
    <path d="M30.967,47.649 C31.17,47.7 31.202,47.702 31.203,47.708 C31.235,47.997 31.265,48.286 31.295,48.576 C31.186,48.572 30.982,48.574 30.981,48.565 C30.964,48.278 30.967,47.989 30.967,47.649" fill="#FFFFFE"/>
    <path d="M31.251,49.57 C31.293,49.857 31.336,50.144 31.381,50.446 C30.821,50.432 30.753,50.163 31.251,49.57" fill="#FFFFFE"/>
    <path d="M32.499,50.523 C31.854,50.471 31.776,50.166 32.216,49.42 C32.326,49.85 32.402,50.146 32.499,50.523" fill="#FFFFFE"/>
    <path d="M42.472,49.628 C42.458,49.918 42.444,50.208 42.43,50.498 C42.321,50.486 42.116,50.473 42.116,50.46 C42.116,50.176 42.138,49.89 42.156,49.606 C42.261,49.613 42.366,49.62 42.472,49.628" fill="#FFFFFE"/>
    <path d="M30.836,46.587 C30.92,46.285 30.993,46.022 31.098,45.646 C31.525,46.303 31.455,46.514 30.836,46.587" fill="#FFFFFE"/>
    <path d="M5.888,7.332 C5.987,7.217 6.086,7.102 6.201,6.968 C6.215,7.227 6.229,7.489 6.248,7.83 C6.381,7.656 6.468,7.542 6.617,7.346 C6.661,7.605 6.689,7.769 6.745,8.096 C6.87,7.818 6.933,7.676 7.055,7.404 C7.337,8.982 7.601,10.453 7.88,12.015 C6.05,10.241 4.884,8.195 4.525,5.596 C5.091,6.022 5.625,6.2 6.309,6.226 C6.116,6.559 5.925,6.887 5.733,7.217 C5.785,7.255 5.836,7.294 5.888,7.332" fill="#FFFFFE"/>
    <path d="M13.248,10.387 C13.196,10.752 13.171,11.126 13.075,11.48 C13.044,11.593 12.828,11.714 12.688,11.726 C11.838,11.801 11.016,11.618 10.34,11.114 C10.084,10.923 10.047,10.434 9.861,9.954 C11.079,10.109 12.11,10.242 13.248,10.387" fill="#FFFFFE"/>
    <path d="M8.374,11.485 C7.703,10.321 7.416,8.303 7.843,7.344 C7.935,7.703 8.072,8.058 8.109,8.423 C8.163,8.933 8.118,9.453 8.16,9.966 C8.202,10.475 8.3,10.979 8.374,11.485" fill="#FFFFFE"/>
    <path d="M7.666,3.234 C7.057,3.666 6.687,4.5 5.769,3.952 C5.968,3.848 6.182,3.736 6.395,3.624 C6.388,3.593 6.38,3.563 6.373,3.532 L5.558,3.532 C5.787,3.104 6.426,3.002 7.666,3.234" fill="#FFFFFE"/>
    <path d="M12.948,12.372 C12.821,12.427 12.688,12.541 12.567,12.529 C11.787,12.45 11.01,12.344 10.18,12.24 L10.18,11.179 C10.949,11.963 11.833,12.393 12.94,12.185 C12.942,12.248 12.945,12.31 12.948,12.372" fill="#FFFFFE"/>
    <path d="M13.777,12.862 C13.568,12.793 13.405,12.739 13.262,12.692 C13.075,12.034 13.623,11.923 14.012,11.623 L13.455,11.623 C13.513,11.361 13.565,11.123 13.636,10.8 C13.877,10.929 14.072,11.033 14.308,11.159 C14.129,11.732 13.957,12.285 13.777,12.862" fill="#FFFFFE"/>
    <path d="M6.883,5.031 C6.385,4.939 5.901,4.85 5.416,4.761 C6.657,4.364 6.883,4.419 6.883,5.031" fill="#FFFFFE"/>
    <path d="M9.202,11.847 C8.919,11.268 8.666,10.647 8.705,9.984 C8.779,9.973 8.854,9.962 8.929,9.95 C9.02,10.583 9.111,11.215 9.202,11.847" fill="#FFFFFE"/>
    <path d="M27.698,13.193 L28.519,13.193 C28.519,13.629 28.469,14.048 28.534,14.448 C28.59,14.791 28.137,15.265 28.775,15.452 C28.499,15.931 28.567,15.854 28.226,15.551 C27.455,14.865 28.019,13.993 27.698,13.193" fill="#FFFFFE"/>
    <path d="M27.694,11.035 L28.516,11.035 L28.516,12.582 L27.694,12.582 z" fill="#FFFFFE"/>
    <path d="M29.635,11.01 L30.367,11.01 L30.367,12.563 L29.635,12.563 z" fill="#FFFFFE"/>
    <path d="M23.096,11.375 L24.238,11.375 L24.238,12.405 L23.096,12.405 z" fill="#FFFFFE"/>
    <path d="M27.239,7.919 C27.408,7.038 27.626,6.825 28.234,6.946 C28.703,7.039 28.687,7.398 28.613,7.835 C28.175,7.862 27.737,7.888 27.239,7.919" fill="#FFFFFE"/>
    <path d="M25.769,12.396 L25.108,12.396 L25.108,11.267 C25.315,11.258 25.521,11.248 25.769,11.237 z" fill="#FFFFFE"/>
    <path d="M26.124,7.201 C26.136,7.44 26.149,7.689 26.165,7.983 L25.151,7.983 C25.09,7.21 25.228,7.095 26.124,7.201" fill="#FFFFFE"/>
    <path d="M3.392,28.771 C3.378,29.04 3.369,29.215 3.358,29.431 C3.141,29.441 2.947,29.454 2.754,29.457 C2.481,29.462 2.208,29.458 1.895,29.458 C1.882,29.205 1.872,29.014 1.86,28.771 z" fill="#FFFFFE"/>
    <path d="M8.05,37.274 C8.091,36.785 8.128,36.335 8.168,35.859 L8.761,35.859 C8.978,37.094 8.838,37.393 8.05,37.274" fill="#FFFFFE"/>
    <path d="M9.015,35.851 L9.649,35.851 L9.649,37.292 L9.015,37.292 z" fill="#FFFFFE"/>
    <path d="M3.364,27.883 L3.364,28.519 L1.91,28.519 L1.91,27.799 C2.383,27.826 2.843,27.853 3.364,27.883" fill="#FFFFFE"/>
    <path d="M9.71,24.705 L9.71,23.326 L10.322,23.326 C10.481,24.629 10.402,24.818 9.71,24.705" fill="#FFFFFE"/>
    <path d="M17.485,30.381 L17.485,31.047 C16.101,31.138 16.036,31.108 16.077,30.381 z" fill="#FFFFFE"/>
    <path d="M3.626,28.813 L5.02,28.813 C5.033,29.021 5.045,29.205 5.056,29.384 C3.798,29.618 3.554,29.522 3.626,28.813" fill="#FFFFFE"/>
    <path d="M9.733,21.604 L10.367,21.604 L10.367,23.038 L9.733,23.038 z" fill="#FFFFFE"/>
    <path d="M10.631,21.603 L11.341,21.603 C11.312,22.078 11.284,22.538 11.254,23.03 L10.631,23.03 z" fill="#FFFFFE"/>
    <path d="M17.49,29.506 L17.49,30.189 C17.025,30.168 16.582,30.147 16.078,30.123 C16.068,29.919 16.058,29.734 16.046,29.506 z" fill="#FFFFFE"/>
    <path d="M15.84,30.081 L14.374,30.081 C14.354,29.895 14.337,29.731 14.314,29.513 L15.802,29.513 C15.812,29.668 15.824,29.849 15.84,30.081" fill="#FFFFFE"/>
    <path d="M11.166,23.315 C11.269,24.513 11.163,24.771 10.569,24.729 L10.569,23.315 z" fill="#FFFFFE"/>
    <path d="M10.253,26.477 C9.619,26.461 9.607,26.425 9.729,25.019 C9.882,25 10.044,24.981 10.253,24.955 z" fill="#FFFFFE"/>
    <path d="M9.667,32.445 L9.667,33.882 C9.492,33.895 9.327,33.908 9.167,33.921 C8.957,32.843 9.082,32.439 9.667,32.445" fill="#FFFFFE"/>
    <path d="M5.025,28.038 L5.025,28.633 C4.55,28.608 4.11,28.584 3.613,28.557 C3.6,28.358 3.589,28.178 3.574,27.927 C4.088,27.967 4.545,28.001 5.025,28.038" fill="#FFFFFE"/>
    <path d="M5.304,29.399 L5.304,28.833 C5.77,28.855 6.213,28.875 6.65,28.896 C6.794,29.519 6.606,29.587 5.304,29.399" fill="#FFFFFE"/>
    <path d="M14.348,30.339 L15.804,30.339 L15.804,30.881 C14.735,31.053 14.369,30.927 14.348,30.339" fill="#FFFFFE"/>
    <path d="M8.826,34.179 L8.826,35.595 L8.277,35.595 C8.121,34.423 8.224,34.148 8.826,34.179" fill="#FFFFFE"/>
    <path d="M8.38,33.883 C8.326,32.545 8.368,32.431 8.889,32.461 C9.055,33.574 8.947,33.894 8.38,33.883" fill="#FFFFFE"/>
    <path d="M14.111,30.79 C12.867,30.851 12.663,30.773 12.7,30.265 C13.967,30.123 14.135,30.182 14.111,30.79" fill="#FFFFFE"/>
    <path d="M9.095,35.621 L9.095,34.166 L9.658,34.166 L9.658,35.578 C9.477,35.592 9.31,35.605 9.095,35.621" fill="#FFFFFE"/>
    <path d="M14.104,30.089 C13.602,30.056 13.155,30.028 12.715,29.999 C12.632,29.406 12.861,29.332 14.104,29.527 z" fill="#FFFFFE"/>
    <path d="M9.745,27.987 C9.586,26.835 9.632,26.699 10.183,26.708 C10.388,27.737 10.279,28.057 9.745,27.987" fill="#FFFFFE"/>
    <path d="M10.52,26.445 L10.52,25.006 L11.038,25.006 C11.111,26.155 11.002,26.461 10.52,26.445" fill="#FFFFFE"/>
    <path d="M5.325,28.08 C6.65,28.09 6.724,28.12 6.691,28.638 L5.325,28.638 z" fill="#FFFFFE"/>
    <path d="M6.983,28.916 C7.347,28.916 7.681,28.894 8.009,28.928 C8.117,28.939 8.211,29.09 8.311,29.178 C8.214,29.245 8.126,29.351 8.02,29.373 C7.81,29.414 7.586,29.384 7.378,29.43 C6.951,29.523 6.9,29.31 6.983,28.916" fill="#FFFFFE"/>
    <path d="M10.949,26.644 C10.912,27.111 10.895,27.467 10.847,27.818 C10.836,27.904 10.735,28.009 10.65,28.043 C10.596,28.064 10.428,27.968 10.429,27.928 C10.439,27.535 10.463,27.14 10.518,26.75 C10.525,26.705 10.747,26.691 10.949,26.644" fill="#FFFFFE"/>
    <path d="M9.191,32.139 C9.191,31.803 9.17,31.464 9.203,31.131 C9.214,31.026 9.372,30.937 9.463,30.841 C9.537,30.933 9.662,31.019 9.675,31.119 C9.706,31.374 9.726,31.643 9.674,31.89 C9.642,32.038 9.466,32.155 9.354,32.286 C9.3,32.237 9.245,32.188 9.191,32.139" fill="#FFFFFE"/>
    <path d="M12.354,29.974 C12.023,29.974 11.691,29.991 11.363,29.963 C11.269,29.956 11.186,29.821 11.098,29.746 C11.189,29.653 11.27,29.497 11.374,29.481 C11.621,29.441 11.888,29.425 12.128,29.482 C12.274,29.516 12.384,29.704 12.511,29.822 C12.458,29.873 12.406,29.923 12.354,29.974" fill="#FFFFFE"/>
    <path d="M7.061,28.193 C7.408,28.229 7.757,28.253 8.101,28.31 C8.18,28.323 8.3,28.452 8.295,28.518 C8.289,28.595 8.167,28.722 8.093,28.724 C7.783,28.732 7.465,28.73 7.164,28.667 C7.06,28.645 6.995,28.435 6.911,28.31 C6.961,28.271 7.011,28.232 7.061,28.193" fill="#FFFFFE"/>
    <path d="M8.482,32.163 C8.58,31.713 8.302,31.164 8.876,30.78 C9.113,31.806 9.002,32.201 8.482,32.163" fill="#FFFFFE"/>
    <path d="M12.497,30.37 C12.375,30.475 12.26,30.658 12.13,30.67 C11.862,30.693 11.583,30.639 11.315,30.586 C11.233,30.569 11.172,30.449 11.101,30.376 C11.18,30.313 11.254,30.199 11.335,30.194 C11.685,30.174 12.036,30.186 12.387,30.186 C12.424,30.247 12.46,30.309 12.497,30.37" fill="#FFFFFE"/>
    <path d="M14.007,42.894 C15.09,44.206 16.07,45.393 17.077,46.614 C15.73,47.894 14.416,49.143 12.995,50.493 C13.338,47.915 13.661,45.49 14.007,42.894" fill="#FFFFFE"/>
    <path d="M17.198,50.466 C17.505,48.947 17.802,47.478 18.124,45.88 C19.444,47.443 20.69,48.918 21.999,50.466 z" fill="#FFFFFE"/>
    <path d="M6.946,50.533 C7.24,48.921 7.505,47.468 7.793,45.885 C8.386,46.566 8.909,47.167 9.46,47.799 C8.641,48.69 7.846,49.554 6.946,50.533" fill="#FFFFFE"/>
    <path d="M25.757,34.263 C25.56,34.263 25.362,34.263 25.165,34.263 C24.516,34.261 24.343,34.068 24.405,33.416 C24.488,32.535 25.131,31.926 25.912,31.986 C26.655,32.043 27.244,32.825 27.175,33.658 C27.142,34.058 27.022,34.347 26.526,34.27 C26.275,34.231 26.014,34.263 25.757,34.263" fill="#FFFFFE"/>
    <path d="M25.056,29.905 C25.24,29.533 25.337,29.23 25.525,29.004 C25.605,28.91 25.968,28.902 26.046,28.992 C26.24,29.214 26.344,29.516 26.546,29.905 z" fill="#FFFFFE"/>
    <path d="M43.799,4.299 C44.965,4.674 46.13,5.049 47.295,5.424 L47.261,5.555 L40.204,5.555 C40.191,5.511 40.178,5.467 40.166,5.423 C41.233,5.086 42.3,4.749 43.367,4.413 C43.312,4.595 43.185,4.793 43.22,4.955 C43.258,5.133 43.416,5.342 43.578,5.417 C43.704,5.477 43.963,5.406 44.075,5.299 C44.193,5.185 44.294,4.927 44.244,4.793 C44.171,4.6 43.954,4.461 43.799,4.299" fill="#FFFFFE"/>
    <path d="M43.799,4.299 C43.954,4.461 44.171,4.6 44.244,4.793 C44.294,4.927 44.193,5.185 44.075,5.299 C43.963,5.406 43.704,5.477 43.578,5.417 C43.416,5.342 43.258,5.133 43.22,4.955 C43.185,4.793 43.312,4.595 43.367,4.413 C43.511,4.375 43.656,4.337 43.799,4.299" fill="#141413"/>
  </g>
  <defs/>
</svg>
